<svg xmlns="http://www.w3.org/2000/svg" viewBox="0 0 80 80"><defs><style>.cls-1{fill:#ff29bf;}.cls-2{fill:#080316;}.cls-3{fill:none;}</style></defs><title>community-management</title><g id="Layer_2" data-name="Layer 2"><g id="Diseño_de_contenidos" data-name="Diseño de contenidos"><g id="community-management"><circle class="cls-1" cx="24.15" cy="41.29" r="24.15"/><path class="cls-2" d="M32.29,41.32H28.07l.42-2.53h3.75a1.2,1.2,0,1,0,0-2.39H28.88l.66-4A1.19,1.19,0,1,0,27.19,32l-.73,4.39h-2.4l.66-4A1.2,1.2,0,1,0,22.36,32l-.72,4.39H16.92a1.2,1.2,0,0,0,0,2.39h4.33l-.42,2.53H17a1.2,1.2,0,1,0,0,2.39h3.47l-.63,3.81a1.18,1.18,0,0,0,1,1.37l.2,0a1.21,1.21,0,0,0,1.18-1l.69-4.2h2.4l-.63,3.81a1.2,1.2,0,0,0,1,1.37l.19,0a1.2,1.2,0,0,0,1.18-1l.69-4.2h4.61a1.2,1.2,0,0,0,0-2.39Zm-9,0,.42-2.53h2.4l-.42,2.53Z"/><path class="cls-2" d="M68.34,18.84H65.1c.77-3.55-.12-5.74-.85-6.83A4.19,4.19,0,0,0,60.88,10a3.28,3.28,0,0,0-2.51,1.11,3.8,3.8,0,0,0-.8,2.94s0,.05,0,.07c.05,1-2.38,4.2-5.17,6.84a2,2,0,0,0-1-.3H46.82A1.79,1.79,0,0,0,45,22.4V34.23a2,2,0,0,0,2,2h4.34a2,2,0,0,0,.91-.22c1.91,1.59,4.93,1.8,6.34,1.8h9.53a4.5,4.5,0,0,0,4.49-4.5V23.13A4.3,4.3,0,0,0,68.34,18.84ZM47.41,23h3.47a1.92,1.92,0,0,0-.05.41s0,2.51,0,5v3.47c0,1.09,0,1.62,0,2H47.41ZM70.24,33.31a2.1,2.1,0,0,1-2.1,2.11H58.61c-.61,0-4.11-.08-5.25-1.72V23.27c1-.91,7.1-6.57,6.58-9.6,0,0-.19-1.33.94-1.33s3.59,2.65.95,8.89h6.51a1.9,1.9,0,0,1,1.9,1.9Z"/><path class="cls-2" d="M38.07,61.13A4.54,4.54,0,0,0,38.89,64a15.66,15.66,0,0,0,2.56,2.59c1.9,1.57,2.66,1.78,3.19,1.78s1.3-.21,3.19-1.78A16.06,16.06,0,0,0,50.39,64a4.57,4.57,0,0,0,.81-2.84A4.23,4.23,0,0,0,50,58.34a4.1,4.1,0,0,0-2.87-1.18,3.77,3.77,0,0,0-2.43.94,3.82,3.82,0,0,0-2.46-.94,4.06,4.06,0,0,0-2.86,1.18A4.29,4.29,0,0,0,38.07,61.13ZM41,60a1.66,1.66,0,0,1,1.18-.49,2.26,2.26,0,0,1,1.51,1l.06.06a1.17,1.17,0,0,0,.87.4,1.23,1.23,0,0,0,.89-.38l.08-.09c.33-.36.88-1,1.48-1a1.7,1.7,0,0,1,1.19.49,1.89,1.89,0,0,1,.55,1.22h0a2.23,2.23,0,0,1-.43,1.4,12.84,12.84,0,0,1-2.08,2.06,9.19,9.19,0,0,1-1.67,1.19A9.3,9.3,0,0,1,43,64.72a13.62,13.62,0,0,1-2.1-2.06,2.12,2.12,0,0,1-.42-1.4A1.84,1.84,0,0,1,41,60Z"/><path class="cls-2" d="M70.89,1.63H44.51a9.12,9.12,0,0,0-9.1,9.11v12c-.23,0-.45,0-.68,0H14.13A6.48,6.48,0,0,0,7.69,29.2V50.1a6.49,6.49,0,0,0,6.44,6.52H24.22v4a1.2,1.2,0,0,0,1.2,1.2,1.23,1.23,0,0,0,.75-.27l6-4.9h.09V69.73a5,5,0,0,0,5,5h6.93v2.48a1.18,1.18,0,0,0,.68,1.07,1.16,1.16,0,0,0,1.26-.15l4.23-3.4h1.73a5,5,0,0,0,5-5V54.9a5,5,0,0,0-5-5H41.18V45.58a9,9,0,0,0,3.33.64H56v4.14A2.39,2.39,0,0,0,57.3,52.5a2.39,2.39,0,0,0,2.5-.23l8-6.05h3A9.12,9.12,0,0,0,80,37.12V10.74A9.12,9.12,0,0,0,70.89,1.63ZM33.44,54.23h-1.7a1.16,1.16,0,0,0-.76.27l-4.37,3.57V55.42a1.19,1.19,0,0,0-1.19-1.19H14.13a4.09,4.09,0,0,1-4.05-4.13V29.2a4.1,4.1,0,0,1,4.05-4.13h20.6a3.92,3.92,0,0,1,.68.07v12a9.09,9.09,0,0,0,3.38,7.07V50.1a4.23,4.23,0,0,1-.08.79h0a4.07,4.07,0,0,1-4,3.34Zm18.61-1.92a2.59,2.59,0,0,1,2.59,2.59V69.73a2.59,2.59,0,0,1-2.59,2.58H49.89a1.23,1.23,0,0,0-.75.27l-2.6,2.1V73.51a1.2,1.2,0,0,0-1.2-1.2H37.22a2.59,2.59,0,0,1-2.58-2.58V56.62h.09a6.44,6.44,0,0,0,6.06-4.31ZM77.61,37.12a6.72,6.72,0,0,1-6.72,6.72H67.05l-8.69,6.52V43.84H44.51a6.83,6.83,0,0,1-6.71-7V23.51h0V10.74A6.72,6.72,0,0,1,44.51,4H70.89a6.72,6.72,0,0,1,6.72,6.72Z"/><rect class="cls-3" width="80" height="80"/></g></g></g></svg>