<svg id="send_-icon" data-name="send -icon" xmlns="http://www.w3.org/2000/svg" width="70.364" height="63.291" viewBox="0 0 70.364 63.291">
  <circle id="Elipse_56" data-name="Elipse 56" cx="13.583" cy="13.583" r="13.583" transform="translate(43.197)" fill="#ff29bf"/>
  <path id="Trazado_219" data-name="Trazado 219" d="M212.036,1928.722c0-.021,0-.041-.006-.061s0-.015,0-.022-.005-.017-.006-.025-.009-.036-.014-.054-.007-.032-.012-.048l-.007-.019c-.006-.017-.014-.033-.022-.05s-.02-.049-.033-.072l0,0-.01-.015c-.009-.016-.02-.031-.03-.047s-.028-.042-.044-.063l-.023-.028-.01-.013c-.006-.007-.014-.013-.021-.019a.7.7,0,0,0-.051-.05c-.012-.011-.024-.022-.037-.032l-.031-.024-.053-.035-.05-.03-.03-.016-.013-.007a.171.171,0,0,0-.018-.005l-.007,0c-.026-.011-.051-.022-.078-.031s-.048-.013-.072-.018a.743.743,0,0,0-.084-.017c-.024,0-.049,0-.073-.005a.8.8,0,0,0-.085,0,.717.717,0,0,0-.08.009.759.759,0,0,0-.077.012.863.863,0,0,0-.091.028c-.017.005-.034.008-.05.015l-59.024,23.963a.891.891,0,0,0,0,1.652l15.581,6.3,8.641,20.582a.889.889,0,0,0,1.6.637l9.532-13.223,16.751,6.773a.892.892,0,0,0,1.215-.691l6.916-45.032c0-.016,0-.033,0-.051s0-.041,0-.062,0-.017,0-.026S212.038,1928.744,212.036,1928.722Zm-33.049,34.743c0,.006,0,.012-.006.017a.893.893,0,0,0-.07.217l-2.369,13.42-7.394-17.614,19.673-13.874,16.447-11.6-26.143,29.226A.894.894,0,0,0,178.987,1963.465Zm25.3-30.924-36.362,25.643-13.428-5.429ZM178.374,1977l2.087-11.828,4.987,2.016Zm25.151-4.426-16.085-6.5c-.018-.015-.034-.033-.053-.047a.884.884,0,0,0-.472-.165l-5.673-2.294,28.572-31.942Z" transform="translate(-151.235 -1918.182)" fill="#fff"/>
</svg>
