<svg xmlns="http://www.w3.org/2000/svg" viewBox="0 0 80 80"><defs><style>.cls-1{fill:#4af48f;}.cls-2{fill:#080316;}.cls-3{fill:none;}</style></defs><title>desarrollo-apps</title><g id="Layer_2" data-name="Layer 2"><g id="Diseño_de_contenidos" data-name="Diseño de contenidos"><g id="desarrollo-apps"><circle class="cls-1" cx="33.8" cy="29.26" r="23.79"/><path class="cls-2" d="M58.44,1.49H20.86A5.11,5.11,0,0,0,15.75,6.6V73.4a5.11,5.11,0,0,0,5.11,5.11H58.44a5.11,5.11,0,0,0,5.11-5.11V6.6A5.11,5.11,0,0,0,58.44,1.49ZM17.87,13.41H61.43V64.94H17.87Zm3-9.8H58.44a3,3,0,0,1,3,3v4.69H17.87V6.6A3,3,0,0,1,20.86,3.61ZM58.44,76.39H20.86a3,3,0,0,1-3-3V67.06H61.43V73.4A3,3,0,0,1,58.44,76.39Z"/><circle class="cls-2" cx="39.72" cy="71.34" r="1.33"/><path class="cls-2" d="M29.69,25.32a.93.93,0,0,0-1.31-.08l-4.05,3.57a.92.92,0,0,0-.31.71.89.89,0,0,0,.33.7l4,3.34a.93.93,0,1,0,1.18-1.44l-3.2-2.64,3.23-2.85A.93.93,0,0,0,29.69,25.32Z"/><path class="cls-2" d="M40.17,29.48,37,32.12a.93.93,0,0,0-.13,1.31,1,1,0,0,0,.72.34.93.93,0,0,0,.59-.21l4.05-3.34a.93.93,0,0,0,.34-.7,1,1,0,0,0-.32-.71l-4-3.57a.93.93,0,1,0-1.23,1.39Z"/><path class="cls-2" d="M33,35.41,35.38,24a.92.92,0,0,0-.72-1.09.91.91,0,0,0-1.1.72L31.18,35a.92.92,0,0,0,.72,1.1l.19,0A.94.94,0,0,0,33,35.41Z"/><path class="cls-2" d="M38,37.08A.93.93,0,0,0,39,38h6.91a.93.93,0,0,0,0-1.86H39A.93.93,0,0,0,38,37.08Z"/><path class="cls-2" d="M53.82,45.18H43.46a.93.93,0,0,0,0,1.86H53.82a.93.93,0,0,0,0-1.86Z"/><path class="cls-2" d="M54.35,36.15H49.84a.93.93,0,1,0,0,1.86h4.51a.93.93,0,0,0,0-1.86Z"/><path class="cls-2" d="M32.84,45.18a.93.93,0,0,0,0,1.86h5.58a.93.93,0,0,0,0-1.86Z"/><path class="cls-2" d="M28.86,45.18H25.94a.93.93,0,0,0,0,1.86h2.92a.93.93,0,0,0,0-1.86Z"/><path class="cls-2" d="M53.82,53.68H49a.93.93,0,0,0,0,1.86h4.78a.93.93,0,0,0,0-1.86Z"/><path class="cls-2" d="M44.84,53.68h-12a.93.93,0,0,0,0,1.86h12a.93.93,0,0,0,0-1.86Z"/><path class="cls-2" d="M28.86,53.68H25.94a.93.93,0,0,0,0,1.86h2.92a.93.93,0,0,0,0-1.86Z"/><rect class="cls-3" width="80" height="80"/></g></g></g></svg>