<svg xmlns="http://www.w3.org/2000/svg" viewBox="0 0 80 80"><defs><style>.cls-1{fill:#ff29bf;}.cls-2{fill:#080316;}.cls-3{fill:none;}</style></defs><title>desarrollo-web</title><g id="Layer_2" data-name="Layer 2"><g id="Diseño_de_contenidos" data-name="Diseño de contenidos"><g id="desarrollo-web"><circle class="cls-1" cx="64.34" cy="23.66" r="14.41"/><path class="cls-2" d="M66.19,18.45H13.81a4.09,4.09,0,0,0-4.08,4.09V66.67a4.08,4.08,0,0,0,4.08,4.08H66.19a4.08,4.08,0,0,0,4.08-4.08V22.54A4.09,4.09,0,0,0,66.19,18.45ZM13.81,20.1H66.19a2.43,2.43,0,0,1,2.43,2.44v3.79H11.38V22.54A2.43,2.43,0,0,1,13.81,20.1Zm52.38,49H13.81a2.43,2.43,0,0,1-2.43-2.44V28H68.62v38.7A2.43,2.43,0,0,1,66.19,69.11Z"/><path class="cls-2" d="M22.29,24.39a1,1,0,1,0-1-1A1,1,0,0,0,22.29,24.39Z"/><path class="cls-2" d="M14.68,24.37a1,1,0,0,0,1.2-1.21,1,1,0,0,0-.8-.8,1,1,0,0,0-1.21,1.2A1.05,1.05,0,0,0,14.68,24.37Z"/><path class="cls-2" d="M18.39,24.37a1,1,0,0,0,1.2-1.21,1,1,0,0,0-.8-.8,1,1,0,0,0-1.21,1.2A1,1,0,0,0,18.39,24.37Z"/><path class="cls-2" d="M33.2,41A.81.81,0,0,0,32,41l-7,6.17a.84.84,0,0,0-.28.63.88.88,0,0,0,.3.63l7,5.76a.82.82,0,0,0,.53.19.81.81,0,0,0,.63-.3.82.82,0,0,0-.11-1.16l-6.25-5.15,6.27-5.54A.81.81,0,0,0,33.2,41Z"/><path class="cls-2" d="M48,41a.82.82,0,0,0-1.09,1.23l6.27,5.54-6.25,5.15A.82.82,0,0,0,46.78,54a.81.81,0,0,0,.63.3.82.82,0,0,0,.53-.19l7-5.76a.88.88,0,0,0,.3-.63.84.84,0,0,0-.28-.63Z"/><path class="cls-2" d="M42.23,37.06a.83.83,0,0,0-1,.64L37.13,57.47a.83.83,0,0,0,.64,1l.17,0a.83.83,0,0,0,.81-.66L42.87,38A.83.83,0,0,0,42.23,37.06Z"/><rect class="cls-3" width="80" height="80"/></g></g></g></svg>