<svg xmlns="http://www.w3.org/2000/svg" viewBox="0 0 80 80.11"><defs><style>.cls-1{fill:#4af48f;}.cls-2{fill:#080316;}.cls-3{fill:none;}</style></defs><title>e-commerce</title><g id="Layer_2" data-name="Layer 2"><g id="Diseño_de_contenidos" data-name="Diseño de contenidos"><g id="e-commerce"><circle class="cls-1" cx="23.49" cy="15.86" r="15.74"/><path class="cls-2" d="M62.48,24V13.46a4.8,4.8,0,0,0-4.79-4.79H22.89a4.8,4.8,0,0,0-4.79,4.79V75.32a4.8,4.8,0,0,0,4.79,4.79h34.8a4.8,4.8,0,0,0,4.79-4.79V59.43a17.76,17.76,0,0,0,0-35.48ZM44.85,47.65l-3.38,6.86A1,1,0,0,0,42.56,56l7.08-1.17a17.63,17.63,0,0,0,10.77,4.59v8H20.17V19.81H60.41V24A17.76,17.76,0,0,0,44.85,47.65Zm-22-36.91h34.8a2.72,2.72,0,0,1,2.72,2.72v4.29H20.17V13.46A2.72,2.72,0,0,1,22.89,10.74Zm34.8,67.31H22.89a2.73,2.73,0,0,1-2.72-2.73V69.51H60.41v5.81A2.73,2.73,0,0,1,57.69,78.05Zm3.89-20.67A15.6,15.6,0,0,1,50.69,53a1,1,0,0,0-.72-.29H49.8l-5.59.92,2.69-5.46a1,1,0,0,0,0-.82,15.7,15.7,0,1,1,14.64,10Z"/><path class="cls-2" d="M66.06,34.31a4.48,4.48,0,1,0-9,0v.93H52.68v14a3.84,3.84,0,0,0,3.83,3.83h9.65A3.84,3.84,0,0,0,70,49.22v-14H66.06Zm-6.89,0a2.41,2.41,0,1,1,4.82,0v.93H59.17Zm8.76,3V49.22A1.77,1.77,0,0,1,66.16,51H56.51a1.78,1.78,0,0,1-1.77-1.77V37.31h2.37v3.27h2.06V37.31H64v3.27h2.07V37.31Z"/><path class="cls-2" d="M40.43,36.31H37.72a1,1,0,0,0,0,2.07h2.71a1,1,0,0,0,0-2.07Z"/><path class="cls-2" d="M40.43,40.74H37.72a1,1,0,0,0,0,2.07h2.71a1,1,0,0,0,0-2.07Z"/><path class="cls-2" d="M34.32,33.55l-2,1.79a5.4,5.4,0,0,0-3.25-1.08,5.46,5.46,0,1,0,4.65,2.6l2-1.79a1,1,0,1,0-1.39-1.52Zm-1.81,6.17a3.41,3.41,0,1,1-1.72-2.95L28.41,39a1,1,0,0,0,.7,1.79,1,1,0,0,0,.7-.27l2.38-2.18A3.36,3.36,0,0,1,32.51,39.72Z"/><circle class="cls-2" cx="40.35" cy="73.42" r="1.23"/><rect class="cls-3" width="80" height="80"/></g></g></g></svg>