<?xml version="1.0" encoding="utf-8"?>
<!-- Generator: Adobe Illustrator 25.2.3, SVG Export Plug-In . SVG Version: 6.00 Build 0)  -->
<svg version="1.1" id="Capa_1" xmlns="http://www.w3.org/2000/svg" xmlns:xlink="http://www.w3.org/1999/xlink" x="0px" y="0px"
	 viewBox="0 0 20.1 20.1" style="enable-background:new 0 0 20.1 20.1;" xml:space="preserve">
<style type="text/css">
	.st0{fill:#080316;}
</style>
<path class="st0" d="M11.1,10.1l8.5-8.5c0.3-0.3,0.3-0.8,0-1.1s-0.8-0.3-1.1,0L10.1,9L1.6,0.5c-0.3-0.3-0.8-0.3-1.1,0
	s-0.3,0.8,0,1.1L9,10.1l-8.5,8.5c-0.3,0.3-0.3,0.8,0,1.1c0.1,0.1,0.3,0.2,0.5,0.2s0.4-0.1,0.5-0.2l8.5-8.5l8.5,8.5
	c0.1,0.1,0.3,0.2,0.5,0.2s0.4-0.1,0.5-0.2c0.3-0.3,0.3-0.8,0-1.1L11.1,10.1z"/>
</svg>
