<svg id="Grupo_90" data-name="Grupo 90" xmlns="http://www.w3.org/2000/svg" width="39" height="39" viewBox="0 0 39 39">
  <circle id="Elipse_35" data-name="Elipse 35" cx="19.5" cy="19.5" r="19.5" fill="#080316"/>
  <g id="Grupo_162" data-name="Grupo 162" transform="translate(9.5 10)">
    <g id="Grupo_159" data-name="Grupo 159">
      <g id="Grupo_158" data-name="Grupo 158" transform="translate(0)">
        <path id="Trazado_180" data-name="Trazado 180" d="M394.164,1064.917a3.132,3.132,0,1,0,3.132,3.132A3.136,3.136,0,0,0,394.164,1064.917Zm0,4.873a1.74,1.74,0,1,1,1.74-1.74A1.742,1.742,0,0,1,394.164,1069.79Z" transform="translate(-384.164 -1055.713)" fill="#fff"/>
        <path id="Trazado_181" data-name="Trazado 181" d="M361.116,1010.593a10.581,10.581,0,0,0-3.95-4.354l2.115-2.2a.837.837,0,0,0,0-1.15.76.76,0,0,0-1.1,0l-2.481,2.583a11.309,11.309,0,0,0-3.714-.894v-3.686a.782.782,0,1,0-1.562,0v3.686a11.307,11.307,0,0,0-3.714.894l-2.481-2.583a.76.76,0,0,0-1.1,0,.837.837,0,0,0,0,1.15l2.115,2.2a10.581,10.581,0,0,0-3.95,4.354.829.829,0,0,0,.345,1.093.767.767,0,0,0,1.049-.359,9.624,9.624,0,0,1,17.042,0,.767.767,0,0,0,1.049.359A.829.829,0,0,0,361.116,1010.593Z" transform="translate(-341.2 -1000.076)" fill="#fff"/>
      </g>
    </g>
  </g>
</svg>
