<svg xmlns="http://www.w3.org/2000/svg" viewBox="0 0 80 79.77"><defs><style>.cls-1{fill:#4af48f;}.cls-2{fill:#080316;}.cls-3{fill:none;}</style></defs><title>filtros-redes</title><g id="Layer_2" data-name="Layer 2"><g id="Diseño_de_contenidos" data-name="Diseño de contenidos"><g id="filtros-redes"><circle class="cls-1" cx="59.05" cy="14.52" r="14.52"/><path class="cls-2" d="M38.55,61.17a.86.86,0,1,0-.86-.86A.86.86,0,0,0,38.55,61.17Z"/><path class="cls-2" d="M66.37,68.05l-.06,0A9.67,9.67,0,0,1,63.4,57.28a.65.65,0,0,0,0-.13A23.39,23.39,0,0,0,62,42.51l-.47-1.45a61.06,61.06,0,0,0-3.67-9.55,9.93,9.93,0,0,0-3.73-3.94V14.47a4.42,4.42,0,0,0-4.41-4.42H27.25a4.42,4.42,0,0,0-4.41,4.42V60.78a4.42,4.42,0,0,0,4.41,4.42h4.52C32.91,69.31,41,73,42.5,73.62l6.69,5.8a1,1,0,0,0,.63.24H75.67a1,1,0,0,0,.88-.59,1,1,0,0,0-.2-1ZM49.52,52l-.87-.55c-.13-.08-.24-.16-.37-.23l-.68-.43-.4-.25-.06,0v-5.9a.61.61,0,0,0,0-.14c0-.1,0-.21,0-.31a8.57,8.57,0,0,0-5-7.75,6.85,6.85,0,1,0-7.36,0,8.58,8.58,0,0,0-5,7.75c0,.1,0,.2,0,.3s0,.1,0,.15V55.92H24.74V18.27H52.27V53.73l-2.5-1.58Zm-13.27-.13a1.45,1.45,0,0,0,.07.26l0,.08a1.54,1.54,0,0,0,.08.19.47.47,0,0,0,0,.1l.09.19.06.1.13.22.05.07c.06.1.13.2.2.3l.06.08c0,.07.1.15.16.22a.76.76,0,0,1,.08.11l.16.19.09.11a1.63,1.63,0,0,0,.17.2l.07.1a3.33,3.33,0,0,1,.25.28l0,0,.22.24.09.09.16.18.09.08.17.18.06.06.23.23H31.72v-11a1.23,1.23,0,0,0,0-.27V44.4a2.17,2.17,0,0,1,0-.26,6.76,6.76,0,0,1,13.51,0,2.17,2.17,0,0,1,0,.26v.13a2.28,2.28,0,0,0,0,.26v4.52l-.3-.19-.33-.2c-3-1.83-3.24-1.88-3.45-1.92h0a3,3,0,0,0-.42-.06,3,3,0,0,0-.42,0A4.14,4.14,0,0,0,36.16,51,3.84,3.84,0,0,0,36.25,51.86ZM33.53,30.62a4.95,4.95,0,1,1,4.95,4.94A5,5,0,0,1,33.53,30.62ZM27.25,12H49.76a2.51,2.51,0,0,1,2.51,2.51v1.9H24.74v-1.9A2.51,2.51,0,0,1,27.25,12ZM24.74,60.78v-3H41.32l5.91,5.47h-20A2.51,2.51,0,0,1,24.74,60.78Zm25.43,17-6.53-5.66a.87.87,0,0,0-.26-.16C40,70.51,35,67.61,33.78,65.2H49.29l2.6,2.41a1,1,0,0,0,.65.25,1,1,0,0,0,.65-1.65L40.94,54.87a12.76,12.76,0,0,1-2.83-3.39,2.28,2.28,0,0,1,0-.45,2.09,2.09,0,0,1,0-.25,2.23,2.23,0,0,1,2.54-1.94h.1c.23.1,1.17.61,5,3h0l.13.09.08,0,.87.54,0,0,.92.58h0l.45.29h0L51,55.18l0,0,1.68,1.07a.62.62,0,0,0,.22.1H53l.16,0h.08l.2,0h0l.05,0,.15-.06h0s0,0,0,0l.12-.09a.1.1,0,0,0,0,0h0A1.09,1.09,0,0,0,54,56h0s0,0,0,0a.56.56,0,0,0,.07-.16.25.25,0,0,0,0-.07.63.63,0,0,0,0-.19V29.87a9.53,9.53,0,0,1,2.08,2.58,61.71,61.71,0,0,1,3.5,9.19c.19.57.36,1.09.5,1.53l0,.12a21.89,21.89,0,0,1,1.3,13.37,11.72,11.72,0,0,0,3.45,12.76l8.32,8.33Z"/><path class="cls-2" d="M57.07,12.07a1,1,0,0,0,.53-.16l2.72-1.82a1,1,0,0,0,.27-1.32.94.94,0,0,0-1.32-.26l-2.72,1.81a1,1,0,0,0,.52,1.75Z"/><path class="cls-2" d="M56.55,18.26l2.72,1.81a.91.91,0,0,0,.52.16,1,1,0,0,0,.8-.42,1,1,0,0,0-.27-1.32L57.6,16.67a1,1,0,1,0-1.05,1.59Z"/><path class="cls-2" d="M58.84,14.29a1,1,0,0,0,1,1h2.72a1,1,0,0,0,0-1.9H59.8A1,1,0,0,0,58.84,14.29Z"/><rect class="cls-3" x="0.34" y="0.11" width="79.66" height="79.66"/><rect class="cls-3" width="79.66" height="79.66"/></g></g></g></svg>