<svg xmlns="http://www.w3.org/2000/svg" width="41.247" height="40" viewBox="0 0 41.247 40">
  <g id="Grupo_599" data-name="Grupo 599" transform="translate(-233 -5566.054)">
    <rect id="Rectángulo_70" data-name="Rectángulo 70" width="41.247" height="40" rx="5.239" transform="translate(233 5566.054)" fill="#4af48f"/>
    <g id="Grupo_67" data-name="Grupo 67" transform="translate(241.146 5573.201)">
      <g id="Grupo_65" data-name="Grupo 65" transform="translate(0 0)">
        <path id="Trazado_19" data-name="Trazado 19" d="M230.76,645.42v-.051c0,3.623-1.878,4.963-4.326,4.963a6.153,6.153,0,0,1-3.891-1.643c-.369-.336-.771-.336-1.006.033l-.671.972a.737.737,0,0,0,.168.905,8.752,8.752,0,0,0,5.4,2.013c3.522,0,6.775-1.946,6.775-7.244v-1.6Z" transform="translate(-219.013 -626.907)" fill="#080316"/>
        <path id="Trazado_20" data-name="Trazado 20" d="M226.3,562.975a.8.8,0,0,0-.772-.738h-.469c-.4,0-.57.235-.738.536l-.235.7a7.661,7.661,0,0,0-4.628-1.576c-4.225,0-7.243,3.656-7.243,8.083,0,4.528,3.085,8.116,7.344,8.116a7.494,7.494,0,0,0,4.293-1.375l2.448-1.581Zm-2.482,11.57a7.54,7.54,0,0,1-3.924,1.275c-2.951,0-5.164-2.515-5.164-5.868,0-3.019,1.912-5.768,5-5.768a5.767,5.767,0,0,1,4.091,1.877Z" transform="translate(-212.217 -561.901)" fill="#080316"/>
      </g>
      <g id="Grupo_66" data-name="Grupo 66" transform="translate(17.67 3.48)">
        <path id="Trazado_21" data-name="Trazado 21" d="M298.229,588.116a.462.462,0,0,1,.23-.411l4.587-3.445-4.741-3.3a.473.473,0,0,1-.249-.424l-.029-1.264a.426.426,0,0,1,.659-.4l7.307,4.87a.556.556,0,0,1,.247.4l0,.119a.555.555,0,0,1-.229.411l-7.079,5.078a.426.426,0,0,1-.677-.367Z" transform="translate(-298.026 -578.8)" fill="#080316"/>
      </g>
    </g>
  </g>
</svg>
