<svg xmlns="http://www.w3.org/2000/svg" xmlns:xlink="http://www.w3.org/1999/xlink" width="50" height="50" viewBox="0 0 50 50">
  <defs>
    <linearGradient id="linear-gradient" x1="0.169" x2="0.855" y2="1" gradientUnits="objectBoundingBox">
      <stop offset="0" stop-color="#54f293"/>
      <stop offset="0.517" stop-color="#f1ff83"/>
      <stop offset="1" stop-color="#1374e8"/>
    </linearGradient>
    <linearGradient id="linear-gradient-2" x1="0.169" x2="0.855" y2="1" gradientUnits="objectBoundingBox">
      <stop offset="0" stop-color="#54f293"/>
      <stop offset="0.493" stop-color="#8cb5f6"/>
      <stop offset="0.764" stop-color="#4b92ef"/>
      <stop offset="1" stop-color="#1374e8"/>
    </linearGradient>
  </defs>
  <g id="IG" transform="translate(-2137.276 -2334.109)">
    <circle id="Elipse_48" data-name="Elipse 48" cx="25" cy="25" r="25" transform="translate(2137.276 2334.109)" fill="#080316"/>
    <path id="Trazado_124" data-name="Trazado 124" d="M2172.88,2376.094h-17.207a6.4,6.4,0,0,1-6.4-6.4V2352.49a6.4,6.4,0,0,1,6.4-6.4h17.207a6.4,6.4,0,0,1,6.4,6.4V2369.7A6.4,6.4,0,0,1,2172.88,2376.094Zm-17.207-29.07a5.472,5.472,0,0,0-5.466,5.466V2369.7a5.472,5.472,0,0,0,5.466,5.466h17.207a5.472,5.472,0,0,0,5.466-5.466V2352.49a5.472,5.472,0,0,0-5.466-5.466Z" transform="translate(0 0)" fill="url(#linear-gradient)"/>
    <path id="Trazado_125" data-name="Trazado 125" d="M2211.4,2416.794a8.574,8.574,0,1,1,8.574-8.574A8.583,8.583,0,0,1,2211.4,2416.794Zm0-16.217a7.644,7.644,0,1,0,7.644,7.644A7.652,7.652,0,0,0,2211.4,2400.577Z" transform="translate(-47.127 -47.127)" fill="url(#linear-gradient-2)"/>
    <rect id="Rectángulo_108" data-name="Rectángulo 108" width="3.152" height="3.152" rx="1.576" transform="translate(2172.385 2349.867)" fill="url(#linear-gradient-2)"/>
  </g>
</svg>
