<svg xmlns="http://www.w3.org/2000/svg" xmlns:xlink="http://www.w3.org/1999/xlink" width="50" height="50" viewBox="0 0 50 50">
  <defs>
    <linearGradient id="linear-gradient" x1="0.178" y1="0.078" x2="0.855" y2="1" gradientUnits="objectBoundingBox">
      <stop offset="0" stop-color="#54f293"/>
      <stop offset="0.517" stop-color="#f1ff83"/>
      <stop offset="1" stop-color="#1374e8"/>
    </linearGradient>
  </defs>
  <g id="IN" transform="translate(-2479.787 -2335.109)">
    <circle id="Elipse_47" data-name="Elipse 47" cx="25" cy="25" r="25" transform="translate(2479.787 2335.109)" fill="#080316"/>
    <g id="Grupo_99" data-name="Grupo 99" transform="translate(2491.133 2346.094)">
      <g id="Grupo_98" data-name="Grupo 98" transform="translate(0 0)">
        <path id="Trazado_126" data-name="Trazado 126" d="M2495.271,2346.094a4.1,4.1,0,0,0-4.138,4.087,4.1,4.1,0,0,0,1.226,2.912,3.9,3.9,0,0,0,2.861,1.175h.1a3.872,3.872,0,0,0,2.759-1.175,4.1,4.1,0,0,0,1.226-2.912,3.817,3.817,0,0,0-1.175-2.861A3.867,3.867,0,0,0,2495.271,2346.094Zm2.095,6.284a2.813,2.813,0,0,1-2.146.868,3.1,3.1,0,0,1-2.146-.868,2.971,2.971,0,0,1-.92-2.2,3.053,3.053,0,0,1,3.116-3.065,2.981,2.981,0,0,1,2.095.868,3.054,3.054,0,0,1,.92,2.2A2.971,2.971,0,0,1,2497.366,2352.378Z" transform="translate(-2491.133 -2346.094)" fill="url(#linear-gradient)"/>
        <path id="Trazado_127" data-name="Trazado 127" d="M2500.99,2422.365h-4.138a1.5,1.5,0,0,0-1.482,1.533v17.881a1.571,1.571,0,0,0,1.533,1.533h4.087a1.563,1.563,0,0,0,1.532-1.481V2423.9A1.571,1.571,0,0,0,2500.99,2422.365Zm.511,19.465a.5.5,0,0,1-.511.46H2496.9a.549.549,0,0,1-.511-.511V2423.9a.5.5,0,0,1,.46-.511h4.138a.549.549,0,0,1,.511.511Z" transform="translate(-2494.859 -2413.169)" fill="url(#linear-gradient)"/>
        <path id="Trazado_128" data-name="Trazado 128" d="M2588.79,2418.128h-1.073a6.9,6.9,0,0,0-5.109,2.248v-.715a1.1,1.1,0,0,0-1.022-1.022h-5.109a1.05,1.05,0,0,0-1.022.97v19.057a1,1,0,0,0,1.022.92h5.62a1,1,0,0,0,1.022-.92v-11.035a2.884,2.884,0,0,1,2.81-3.014,3.012,3.012,0,0,1,2.146.869,2.683,2.683,0,0,1,.715,2.095v10.984a1.1,1.1,0,0,0,1.022,1.022h5.109a1.1,1.1,0,0,0,1.022-1.022v-13.181A7.1,7.1,0,0,0,2588.79,2418.128Zm6.131,20.385-.051.051h-5.007l-.051-10.984a3.763,3.763,0,0,0-.971-2.81,4.019,4.019,0,0,0-2.861-1.175,3.939,3.939,0,0,0-3.832,4.036v10.933h-5.62v-18.9h5.058l.051.051v3.219l1.38-1.379.051-.051a5.83,5.83,0,0,1,4.7-2.35h1.073a6.1,6.1,0,0,1,6.08,6.233Z" transform="translate(-2565.288 -2409.443)" fill="url(#linear-gradient)"/>
      </g>
    </g>
  </g>
</svg>
