<svg xmlns="http://www.w3.org/2000/svg" viewBox="0 0 80 80"><defs><style>.cls-1{fill:#ff29bf;}.cls-2{fill:#080316;}.cls-3{fill:none;}</style></defs><title>intranet (2)</title><g id="Layer_2" data-name="Layer 2"><g id="Diseño_de_contenidos" data-name="Diseño de contenidos"><g id="intranet"><circle class="cls-1" cx="40.07" cy="56.71" r="18.77"/><path class="cls-2" d="M79,51.16H61a.85.85,0,0,0-.85.85V57.2H47.25V56.12a2.51,2.51,0,0,0-2.52-2.51h-4V47.16H58.63a12.69,12.69,0,0,0,3.3-24.95A17.78,17.78,0,0,0,29.65,12.13a9.42,9.42,0,0,0-14.31,8.06,9.67,9.67,0,0,0,.08,1.2,13.51,13.51,0,0,0,5.67,25.77H39v6.45H35.4a2.51,2.51,0,0,0-2.51,2.51v1.16h-13V52a.85.85,0,0,0-.86-.85H1A.86.86,0,0,0,.17,52V63.85A.86.86,0,0,0,1,64.7H9.15v1.15H5.72a.86.86,0,0,0,0,1.71h8.57a.86.86,0,1,0,0-1.71H10.86V64.7H19a.85.85,0,0,0,.86-.85V59H32.89v.75a2.52,2.52,0,0,0,2.51,2.52h9.33a2.52,2.52,0,0,0,2.52-2.52v-.83H60.16v4.94a.85.85,0,0,0,.85.85h8.13v1.15H65.71a.86.86,0,1,0,0,1.71h8.57a.86.86,0,0,0,0-1.71H70.85V64.7H79a.86.86,0,0,0,.86-.85V52A.86.86,0,0,0,79,51.16ZM18.13,63H1.89V52.87H18.13Zm3-17.55A11.79,11.79,0,0,1,16.5,22.79.87.87,0,0,0,17,22.3l.15-.39a.93.93,0,0,0,0-.44,7.81,7.81,0,0,1-.11-1.28,7.72,7.72,0,1,1,15.43,0,.86.86,0,0,0,1.71,0,9.4,9.4,0,0,0-3.16-7,16.06,16.06,0,0,1,29.18,8.73,11.76,11.76,0,0,0-1.58-.1,13.08,13.08,0,0,0-2.87.32.86.86,0,0,0-.64,1,.84.84,0,0,0,1,.64,11.52,11.52,0,0,1,2.49-.28,11.16,11.16,0,0,1,2,.19.89.89,0,0,0,.4.12h.11a11,11,0,0,1-2.53,21.65Zm24.45,14.3a.8.8,0,0,1-.81.8H35.4a.8.8,0,0,1-.8-.8V56.12a.8.8,0,0,1,.8-.8h9.33a.8.8,0,0,1,.81.8ZM78.11,63H61.87V52.87H78.11Z"/><rect class="cls-3" width="80" height="80"/></g></g></g></svg>