<svg xmlns="http://www.w3.org/2000/svg" viewBox="0 0 80 80"><defs><style>.cls-1{fill:#4af48f;}.cls-2{fill:#080316;}.cls-3{fill:none;}</style></defs><title>Asset 66</title><g id="Layer_2" data-name="Layer 2"><g id="Diseño_de_contenidos" data-name="Diseño de contenidos"><g id="seo"><circle class="cls-1" cx="18.86" cy="56.34" r="18.86"/><path class="cls-2" d="M71.72,16.54A7.91,7.91,0,0,0,66,30l-6.57,8.85a7.26,7.26,0,0,0-.86-.38,28.76,28.76,0,0,0,.33-4.32A29.31,29.31,0,1,0,45.33,58.91l14,14a4.83,4.83,0,0,0,6.82,0l2.22-2.22a4.84,4.84,0,0,0,0-6.83L58,53.49A7.91,7.91,0,0,0,61.15,40l6.5-8.74a7.83,7.83,0,0,0,4.07,1.14,7.93,7.93,0,1,0,0-15.86ZM2.32,34.13a27.29,27.29,0,0,1,54.57,0A26.45,26.45,0,0,1,56.61,38c-.25,0-.51,0-.77,0h0a7.88,7.88,0,0,0-3.73.94L43.52,30a7.93,7.93,0,1,0-10.76.47L26.59,39a8,8,0,1,0,1.64,1.23l6.26-8.57a7.89,7.89,0,0,0,3.4.78,8,8,0,0,0,4-1.09l8.54,8.78a7.91,7.91,0,0,0-2.52,5.78,7.7,7.7,0,0,0,.05.83s0,0,0,.07c0,.25.06.5.11.73l0,.09a7,7,0,0,0,.18.69.78.78,0,0,1,.05.14c.07.21.15.41.23.61l.1.2c.08.17.16.34.25.5l.15.25c.09.14.17.28.27.41a2.69,2.69,0,0,0,.2.27c.09.12.18.24.28.35l.24.27.3.31a1.14,1.14,0,0,1,.11.11l0,0c-.28.33-.56.65-.86,1l-.31.33-.63.64L48.3,54c-.3.28-.59.55-.9.81l-.43.36-.54.44-.55.42-.42.31-.57.4-.13.08A27.28,27.28,0,0,1,2.32,34.13ZM32,24.47a5.88,5.88,0,1,1,5.88,5.88A5.89,5.89,0,0,1,32,24.47Zm-3.43,21.4A5.88,5.88,0,1,1,22.7,40,5.89,5.89,0,0,1,28.58,45.87Zm39.16,21.4a2.74,2.74,0,0,1-.81,2l-2.22,2.22a2.78,2.78,0,0,1-3.92,0L47.05,57.72l.16-.13,1.1-.86.37-.33c.3-.25.6-.51.89-.79l.45-.43.75-.75.49-.53.66-.75c.07-.09.16-.17.23-.26l.22.1.48.22.32.12.44.15.36.09c.14,0,.29.07.44.09s.25,0,.37.06l.45.05.18,0L66.93,65.31A2.74,2.74,0,0,1,67.74,67.27Zm-6-21.4a5.88,5.88,0,0,1-5.88,5.88,4.89,4.89,0,0,1-.54,0l-.16,0-.38-.05-.16,0-.47-.13h0l-.48-.17-.16-.08-.31-.14A1,1,0,0,1,53,51l-.3-.17a.71.71,0,0,0-.14-.1l-.1-.07L52,50.31l-.15-.14-.33-.33-.13-.14L51,49.25l0-.06c-.12-.19-.24-.38-.34-.58a.2.2,0,0,1,0-.08,3.82,3.82,0,0,1-.23-.51l-.06-.16a4.26,4.26,0,0,1-.15-.47c0-.06,0-.12-.05-.19L50,46.72a1.1,1.1,0,0,1,0-.18,4.91,4.91,0,0,1,0-.67,5.77,5.77,0,0,1,.72-2.8A5.87,5.87,0,0,1,55.84,40a6.06,6.06,0,0,1,1.38.17h0A5.87,5.87,0,0,1,61.72,45.87Zm10-15.52a5.88,5.88,0,1,1,5.88-5.88A5.89,5.89,0,0,1,71.72,30.35Z"/></g><rect class="cls-3" width="80" height="80"/></g></g></svg>