<svg xmlns="http://www.w3.org/2000/svg" viewBox="0 0 80 80"><defs><style>.cls-1{fill:#4af48f;}.cls-2{fill:#080316;}.cls-3{fill:none;}</style></defs><title>ui-ux</title><g id="Layer_2" data-name="Layer 2"><g id="Diseño_de_contenidos" data-name="Diseño de contenidos"><g id="ui-ux"><circle class="cls-1" cx="19.18" cy="62.04" r="17.63"/><circle class="cls-2" cx="38.24" cy="72.51" r="1.38"/><path class="cls-2" d="M38.37,27.93h-.51a.27.27,0,0,0-.26.27v6a2.57,2.57,0,1,1-5.11,0v-6a.27.27,0,0,0-.26-.27h-.51a.28.28,0,0,0-.26.27v6.07a3.59,3.59,0,1,0,7.17,0V28.2A.27.27,0,0,0,38.37,27.93Z"/><path class="cls-2" d="M41.79,27.93h-.54a.27.27,0,0,0-.25.27v9.4a.27.27,0,0,0,.25.27h.54a.27.27,0,0,0,.26-.27V28.2A.27.27,0,0,0,41.79,27.93Z"/><path class="cls-2" d="M50.34,27.93H50a.26.26,0,0,0-.24.19l-2.65,9.4a.25.25,0,0,0,.24.35h.31a.28.28,0,0,0,.25-.18l2.63-9.4A.26.26,0,0,0,50.34,27.93Z"/><path class="cls-2" d="M62.51,27.93H62a.26.26,0,0,0-.25.27v6a2.57,2.57,0,1,1-5.11,0v-6a.27.27,0,0,0-.26-.27h-.52a.27.27,0,0,0-.25.27v6.07a3.58,3.58,0,1,0,7.16,0V28.2A.27.27,0,0,0,62.51,27.93Z"/><path class="cls-2" d="M68.36,32.77,71,28.33a.26.26,0,0,0-.23-.4H70a.26.26,0,0,0-.23.13L67.7,31.82h0L65.6,28.06a.27.27,0,0,0-.23-.13h-.73a.26.26,0,0,0-.23.4l2.64,4.44-2.75,4.7a.26.26,0,0,0,.25.4h.62a.24.24,0,0,0,.23-.13l2.28-4h0l2.31,4a.27.27,0,0,0,.23.13h.62a.25.25,0,0,0,.23-.4Z"/><path class="cls-2" d="M73.17,19.82H63V5.36A5.37,5.37,0,0,0,57.66,0h-39a5.38,5.38,0,0,0-5.37,5.36V74.64A5.38,5.38,0,0,0,18.69,80h39A5.37,5.37,0,0,0,63,74.64V46.37H73.17a5.28,5.28,0,0,0,5.28-5.27v-16A5.28,5.28,0,0,0,73.17,19.82ZM18.69,2.31h39a3.06,3.06,0,0,1,3.05,3.05v4.8H15.64V5.36A3.06,3.06,0,0,1,18.69,2.31Zm39,75.38h-39a3.06,3.06,0,0,1-3.05-3V68.12H60.71v6.52A3.06,3.06,0,0,1,57.66,77.69Zm3.05-11.88H15.64V12.48H60.71v7.34H29.62a5.28,5.28,0,0,0-5.28,5.27v16a5.28,5.28,0,0,0,5.28,5.27h9.56l0,3.27a1.13,1.13,0,0,0,.64,1,1.2,1.2,0,0,0,.52.12,1.17,1.17,0,0,0,.69-.23l5.57-4.18H60.71ZM76.13,41.1a3,3,0,0,1-3,3H46.25a1.14,1.14,0,0,0-.69.23l-4.05,3,0-2.13a1.16,1.16,0,0,0-1.16-1.14H29.62a3,3,0,0,1-3-3v-16a3,3,0,0,1,3-3H61.7l.16,0,.17,0H73.17a3,3,0,0,1,3,3Z"/><path class="cls-2" d="M28.81,53.43H22.75a1.15,1.15,0,0,0-1.16,1.15v5a1.16,1.16,0,0,0,1.16,1.16h6.06A1.15,1.15,0,0,0,30,59.54v-5A1.14,1.14,0,0,0,28.81,53.43Zm-1.16,5H23.9V55.74h3.75Z"/><path class="cls-2" d="M41.2,53.43H35.14A1.14,1.14,0,0,0,34,54.58v5a1.15,1.15,0,0,0,1.15,1.16H41.2a1.16,1.16,0,0,0,1.16-1.16v-5A1.15,1.15,0,0,0,41.2,53.43Zm-1.15,5H36.3V55.74h3.75Z"/><path class="cls-2" d="M46.38,59.54a1.16,1.16,0,0,0,1.16,1.16H53.6a1.16,1.16,0,0,0,1.16-1.16v-5a1.15,1.15,0,0,0-1.16-1.15H47.54a1.15,1.15,0,0,0-1.16,1.15Zm2.32-3.8h3.74v2.65H48.7Z"/><rect class="cls-3" width="80" height="80"/></g></g></g></svg>