<svg id="whatsapp" xmlns="http://www.w3.org/2000/svg" width="30" height="30" viewBox="0 0 30 30">
  <g id="Grupo_84" data-name="Grupo 84">
    <path id="Trazado_39" data-name="Trazado 39" d="M15,0A15,15,0,0,0,2.271,22.94c-.592,2.076-1.663,6-1.674,6.043a.577.577,0,0,0,.726.7l5.946-1.829A15,15,0,1,0,15,0Zm0,28.846A13.812,13.812,0,0,1,7.655,26.74a.577.577,0,0,0-.306-.088.587.587,0,0,0-.17.025l-5.192,1.6c.381-1.392,1.067-3.882,1.464-5.267a.579.579,0,0,0-.07-.474A13.847,13.847,0,1,1,15,28.846Z" fill="#4af48f"/>
    <path id="Trazado_40" data-name="Trazado 40" d="M28.887,22.779c-1.072-.6-1.986-1.194-2.652-1.631-.509-.333-.877-.573-1.146-.709a1.318,1.318,0,0,0-1.542.109.582.582,0,0,0-.073.088A8.174,8.174,0,0,1,21.37,23,13.986,13.986,0,0,1,17.8,20.682c-1.642-1.37-2.675-2.682-2.826-3.576,1.053-1.086,1.433-1.769,1.433-2.546,0-.8-1.866-4.146-2.2-4.484s-1.1-.392-2.268-.159a.586.586,0,0,0-.3.159c-.141.141-3.445,3.514-1.875,7.6,1.723,4.486,6.146,9.7,11.785,10.548a12.2,12.2,0,0,0,1.8.144c3.317,0,5.275-1.672,5.827-4.987A.58.58,0,0,0,28.887,22.779Zm-7.168,4.3c-5.963-.9-9.719-6.812-10.873-9.815-1.145-2.979.966-5.635,1.5-6.235a4.376,4.376,0,0,1,1.074-.074,20.906,20.906,0,0,1,1.826,3.609c0,.305-.1.731-1.282,1.916a.58.58,0,0,0-.17.411c0,3.046,6.416,7.272,7.553,7.272.988,0,2.277-1.663,3.011-2.747a.551.551,0,0,1,.216.067c.209.105.572.342,1.03.642.605.4,1.409.922,2.359,1.467C27.527,25.667,26.322,27.768,21.719,27.076Z" transform="translate(-4.024 -4.212)" fill="#4af48f"/>
  </g>
</svg>
