<?xml version="1.0" encoding="utf-8"?>
<!-- Generator: Adobe Illustrator 25.2.3, SVG Export Plug-In . SVG Version: 6.00 Build 0)  -->
<svg version="1.1" id="Capa_1" xmlns="http://www.w3.org/2000/svg" xmlns:xlink="http://www.w3.org/1999/xlink" x="0px" y="0px"
	 viewBox="0 0 295.2 312.7" style="enable-background:new 0 0 295.2 312.7;" xml:space="preserve">
<style type="text/css">
	.st0{opacity:0.3;}
	.st1{fill:#4AF48F;}
</style>
<g id="bg_triangulos" transform="matrix(0.995, -0.105, 0.105, 0.995, -3835.769, -1837.116)" class="st0">
	<path class="st1" d="M3701.6,2460.1c-3.3-0.3-6.4-1.7-8.9-3.8c-3.4-2.9-5.5-6.9-5.8-11.3l-8.1-95.2c-0.2-2.9,0.3-5.8,1.5-8.5
		c3.9-8.3,13.8-11.9,22.1-8l86.5,40.6c2.6,1.2,4.9,3.2,6.6,5.5c2.5,3.6,3.5,8.1,2.7,12.4c-0.8,4.4-3.2,8.2-6.9,10.7l-78.4,54.7
		c-2.4,1.7-5.2,2.7-8.1,2.9C3703.7,2460.2,3702.7,2460.2,3701.6,2460.1z M3696.8,2333.8c-6-0.6-12.1,2.5-14.8,8.3
		c-1.1,2.3-1.5,4.9-1.3,7.4l8.1,95.2c0.3,3.9,2.2,7.4,5.1,9.9c3,2.5,6.8,3.7,10.7,3.4c2.6-0.2,5-1.1,7.1-2.6l78.4-54.7
		c3.2-2.2,5.3-5.6,6-9.4c0.7-3.8-0.2-7.7-2.4-10.9c-1.5-2.1-3.5-3.8-5.8-4.9l-86.5-40.6C3700,2334.4,3698.4,2334,3696.8,2333.8z"/>
	<path class="st1" d="M3685.9,2501.3c-5.2-0.5-10.1-2.6-14.2-6.1c-5.4-4.5-8.7-10.9-9.3-18l-13.2-155.1c-0.4-4.6,0.4-9.3,2.4-13.5
		c6.2-13.2,21.9-18.9,35.1-12.7l140.9,66.1c4.2,2,7.8,5,10.5,8.8c4,5.8,5.6,12.8,4.3,19.7c-1.2,6.9-5.1,13-10.9,17l-127.7,89
		c-3.8,2.6-8.2,4.3-12.9,4.6C3689.2,2501.5,3687.5,2501.4,3685.9,2501.3z M3678,2295.6c-10.1-1.1-20.2,4.3-24.7,13.9
		c-1.8,3.9-2.6,8.2-2.2,12.4l13.2,155.1c0.6,6.5,3.6,12.4,8.6,16.6c5,4.2,11.3,6.2,17.8,5.7c4.3-0.4,8.4-1.8,11.9-4.3l127.7-89
		c5.4-3.7,8.9-9.3,10.1-15.7c1.1-6.4-0.3-12.9-4-18.3c-2.4-3.5-5.8-6.3-9.7-8.1l-140.9-66.1
		C3683.3,2296.6,3680.7,2295.9,3678,2295.6z"/>
	<path class="st1" d="M3670.5,2541.9c-4-0.4-7.9-1.5-11.7-3.3c-11.8-5.5-19.5-16.6-20.6-29.6l-18.3-214.1
		c-1.1-13,4.6-25.2,15.3-32.7c10.7-7.5,24.1-8.6,36-3.1l194.5,91.2c11.8,5.5,19.5,16.6,20.6,29.6c1.1,13-4.6,25.2-15.3,32.7
		l-176.3,122.8C3687.5,2540.6,3679,2542.8,3670.5,2541.9z M3659.4,2257.9c-8-0.8-16.1,1.2-22.9,6c-10.1,7-15.5,18.6-14.5,30.9
		l18.3,214.1c1,12.3,8.3,22.7,19.5,28c11.2,5.2,23.9,4.1,34-2.9l176.3-122.8c10.1-7,15.5-18.6,14.5-30.9c-1-12.3-8.3-22.7-19.5-28
		l-194.5-91.2C3666.8,2259.3,3663.1,2258.3,3659.4,2257.9z"/>
</g>
</svg>
