<svg xmlns="http://www.w3.org/2000/svg" xmlns:xlink="http://www.w3.org/1999/xlink" width="118.013" height="59.543" xmlns:v="https://vecta.io/nano"><g fill="#2f2f2f"><path d="M4.592 51.094H2.064v-1.292h6.449v1.292H5.985v6.635H4.592zm3.387 3.681v-.022a3.19 3.19 0 0 1 3.177-3.199 3.19 3.19 0 0 1 3.199 3.177v.022c-.002.84-.343 1.644-.945 2.23s-1.415.905-2.255.885a3.09 3.09 0 0 1-2.238-.878c-.597-.583-.934-1.381-.934-2.215zm5 0v-.022a1.85 1.85 0 0 0-1.836-1.924 1.79 1.79 0 0 0-1.8 1.9v.022a1.85 1.85 0 0 0 1.826 1.92 1.8 1.8 0 0 0 1.814-1.9zm2.235-.022v-.022c-.068-.785.192-1.563.717-2.15s1.27-.931 2.057-.95c.811-.004 1.572.389 2.038 1.052v-3.219h1.371v8.269h-1.368v-1a2.4 2.4 0 0 1-2.041 1.109 2.86 2.86 0 0 1-2.774-3.089zm4.834 0v-.022c.033-.486-.133-.964-.459-1.325s-.786-.574-1.272-.59a1.76 1.76 0 0 0-1.275.585 1.77 1.77 0 0 0-.447 1.33v.022c-.065.658.249 1.297.811 1.646s1.273.35 1.835 0a1.74 1.74 0 0 0 .811-1.646z"/><use xlink:href="#B"/><path d="M33.347 49.464h1.371v8.269h-1.371zm2.604 5.311v-.022a3.19 3.19 0 0 1 3.177-3.199 3.19 3.19 0 0 1 3.199 3.177v.022c-.002.84-.343 1.644-.945 2.23s-1.415.905-2.255.885a3.09 3.09 0 0 1-2.238-.878c-.597-.583-.934-1.381-.934-2.215zm5 0v-.022a1.85 1.85 0 0 0-1.836-1.924 1.79 1.79 0 0 0-1.8 1.9v.022a1.85 1.85 0 0 0 1.823 1.924 1.8 1.8 0 0 0 1.814-1.9zm10.219 1.96a2.4 2.4 0 0 1-2.038 1.122 2.87 2.87 0 0 1-2.774-3.1v-.022c-.068-.785.192-1.563.717-2.15s1.27-.931 2.057-.95c.811-.004 1.572.389 2.038 1.052v-.929h1.371v7.792H51.17zm.022-1.981v-.022c.033-.486-.133-.964-.459-1.325s-.786-.574-1.272-.59a1.76 1.76 0 0 0-1.275.585 1.77 1.77 0 0 0-.447 1.33v.022a1.78 1.78 0 0 0 1.722 1.915 1.8 1.8 0 0 0 1.738-1.915zm2.765.802v-3.792h1.37v3.4c0 .929.464 1.46 1.28 1.46a1.32 1.32 0 0 0 1.349-1.485v-3.387h1.371v5.978h-1.37v-.929a2.15 2.15 0 0 1-1.867 1.052 2.05 2.05 0 0 1-1.598-.655 2.06 2.06 0 0 1-.535-1.642zm6.53-.794v-.022a2.97 2.97 0 0 1 2.923-3.115c1.9 0 2.866 1.494 2.866 3.216a2.33 2.33 0 0 1-.022.385h-4.4a1.67 1.67 0 0 0 1.722 1.517c.617.003 1.207-.257 1.621-.714l.8.714c-.595.736-1.5 1.151-2.446 1.122a2.99 2.99 0 0 1-2.208-.883 2.98 2.98 0 0 1-.86-2.217zm4.423-.442a1.56 1.56 0 0 0-1.517-1.58 1.61 1.61 0 0 0-1.551 1.58zm5.717-4.789h1.472v1.3h-1.472zm.057 2.212h1.368v5.978h-1.371zm2.932.009h1.371v.907a2.14 2.14 0 0 1 1.823-1.03 1.9 1.9 0 0 1 1.779 1.052 2.44 2.44 0 0 1 2.028-1.052 2.01 2.01 0 0 1 2.095 2.288v3.817h-1.371v-3.4c0-.948-.442-1.46-1.213-1.46s-1.264.521-1.264 1.485v3.374h-1.371v-3.412c0-.929-.452-1.45-1.21-1.45s-1.28.566-1.28 1.494v3.365h-1.371zm10.531-.001h1.371v1a2.39 2.39 0 0 1 2.028-1.122 2.87 2.87 0 0 1 2.787 3.1v.022a2.86 2.86 0 0 1-2.787 3.1c-.809.008-1.569-.386-2.028-1.052v2.739h-1.371zm4.79 3v-.022a1.77 1.77 0 0 0-1.709-1.915 1.8 1.8 0 0 0-1.744 1.915v.022a1.8 1.8 0 0 0 1.744 1.915 1.76 1.76 0 0 0 1.709-1.913z"/><use xlink:href="#B" x="68.626"/><path d="M98.722 51.752h1.371v1.355c.295-.909 1.163-1.507 2.117-1.46v1.45h-.079c-1.2 0-2.038.78-2.038 2.367v2.275h-1.371zm4.733 4.325v-3.16h-.755v-1.179h.758v-1.642h1.371v1.643h1.608v1.179h-1.607v2.932a.65.65 0 0 0 .736.749 1.84 1.84 0 0 0 .85-.2v1.127a2.4 2.4 0 0 1-1.235.316c-.481.063-.964-.104-1.304-.452a1.54 1.54 0 0 1-.422-1.313zm7.792 1.653v-.736a2.42 2.42 0 0 1-1.937.859c-.533.063-1.067-.101-1.472-.452a1.91 1.91 0 0 1-.658-1.393v-.022c0-1.324 1.03-1.959 2.423-1.959.561-.009 1.119.075 1.652.25v-.114c0-.828-.521-1.28-1.472-1.28-.59.002-1.172.129-1.709.373l-.373-1.1a5.13 5.13 0 0 1 2.275-.5 2.31 2.31 0 0 1 2.629 2.528v3.545zm.035-2.5a3.91 3.91 0 0 0-1.371-.237c-.859 0-1.371.351-1.371.929v.032c0 .566.509.885 1.156.885.907 0 1.58-.509 1.58-1.264zm2.057-6.809h0c-.028-.712.336-1.382.948-1.746s1.375-.364 1.987 0 .976 1.034.948 1.746h0c.028.712-.336 1.382-.948 1.746s-1.375.364-1.987 0-.976-1.034-.948-1.746zm3.662 0h0a1.72 1.72 0 0 0-1.719-1.719 1.72 1.72 0 0 0-1.719 1.719h0a1.72 1.72 0 0 0 2.579 1.489 1.72 1.72 0 0 0 .859-1.489zm-2.528-1.049h.948c.468 0 .815.212.815.67a.63.63 0 0 1-.446.632l.515.727h-.588l-.436-.632h-.316v.632h-.49zm.916.983c.224 0 .348-.111.348-.278s-.133-.278-.348-.278h-.423v.559z"/></g><path d="M117.497 33.96a5.58 5.58 0 0 0 0-.727V7.751c0-.1-.019-.237-.019-.344A6.9 6.9 0 0 0 110.618.5H7.36v.028A6.9 6.9 0 0 0 .5 7.359h0v26.658A6.91 6.91 0 0 0 7.375 40.9h0l103.252-.022h.035a6.87 6.87 0 0 0 6.85-6.916" fill="none" stroke="#2f2f2f"/><g fill="#2f2f2f"><path d="M54.642 36.295h-3.444v-6.218a.58.58 0 0 0-.3-.528 2 2 0 0 0-.875-.161l-.594.019a3.63 3.63 0 0 0-.547.1v6.784h-3.43v-10.6h3.438v2.727a3.72 3.72 0 0 1 1.014-.272 8.64 8.64 0 0 1 1.33-.092c.866-.046 1.73.125 2.512.5a1.58 1.58 0 0 1 .9 1.45zm11.027-4.088c.105 1.172-.317 2.33-1.15 3.16a5.2 5.2 0 0 1-3.476.992 4.86 4.86 0 0 1-3.425-1.049 4 4 0 0 1-1.139-3.11c-.089-1.163.314-2.31 1.112-3.16a6.55 6.55 0 0 1 7 .016 4.19 4.19 0 0 1 1.077 3.128m-3.6 0c.04-.814-.016-1.629-.167-2.43-.107-.325-.392-.474-.837-.474a.79.79 0 0 0-.847.5c-.146.804-.2 1.623-.161 2.439a9 9 0 0 0 .177 2.376c.161.307.481.497.827.491s.66-.207.81-.519a8.62 8.62 0 0 0 .2-2.382m11.489-3.003h-2.117v5.087c-.036.306.116.604.385.755a3.79 3.79 0 0 0 1.463.183v1.087h-1.968a5.38 5.38 0 0 1-2.528-.474 1.58 1.58 0 0 1-.853-1.472v-5.166h-1.33v-1h1.333v-2.491h3.476v2.487h2.117zm9.843 3.155h-5.03a6.63 6.63 0 0 0 .234 2.281.99.99 0 0 0 .986.5 1.18 1.18 0 0 0 .743-.186.77.77 0 0 0 .259-.651h2.455c.026.668-.346 1.288-.948 1.58a6.48 6.48 0 0 1-2.907.506 4.69 4.69 0 0 1-3.289-1.049 4 4 0 0 1-1.122-3.112 3.95 3.95 0 0 1 1.169-3.109c1.004-.771 2.258-1.143 3.52-1.043a4.39 4.39 0 0 1 2.964.84 3.2 3.2 0 0 1 .948 2.528zm-2.863-1.178a3.64 3.64 0 0 0-.193-1.46.9.9 0 0 0-.882-.389c-.458 0-.739.111-.882.344a3.42 3.42 0 0 0-.2 1.5zm9.665 5.136H88.04a3.7 3.7 0 0 1-1.937-.411c-.432-.251-.686-.724-.657-1.223v-8.97h3.438v8.9a.5.5 0 0 0 .265.483c.338.119.698.165 1.055.136zm9.775-3.958H94.95a6.5 6.5 0 0 0 .24 2.281c.197.351.586.548.986.5a1.26 1.26 0 0 0 .755-.186c.178-.168.269-.408.246-.651h2.455a1.68 1.68 0 0 1-.948 1.58 6.4 6.4 0 0 1-2.913.506 4.69 4.69 0 0 1-3.289-1.049c-1.516-1.803-1.498-4.44.044-6.221 1-.772 2.251-1.143 3.51-1.043a4.4 4.4 0 0 1 2.973.84 3.19 3.19 0 0 1 .948 2.528zm-2.862-1.178c.032-.494-.031-.99-.186-1.46a.92.92 0 0 0-.891-.389c-.461 0-.727.111-.866.344-.18.478-.251.991-.209 1.5z"/><path d="M109.336 34.175c.002.703-.416 1.34-1.062 1.618-.899.432-1.892.629-2.888.575a6.49 6.49 0 0 1-2.97-.534 1.72 1.72 0 0 1-1-1.605h2.777a.73.73 0 0 0 .281.632 1.34 1.34 0 0 0 .809.2 1.58 1.58 0 0 0 .787-.155.54.54 0 0 0 .265-.483c0-.193-.183-.4-.544-.632s-.97-.543-1.779-.948a5.97 5.97 0 0 1-2.01-1.374c-.283-.429-.427-.936-.411-1.45a1.58 1.58 0 0 1 1.049-1.419c.88-.39 1.838-.572 2.8-.534a6.04 6.04 0 0 1 2.844.54c.601.27.986.868.983 1.526h-2.781a.72.72 0 0 0-.269-.585c-.216-.16-.481-.24-.749-.227a1.36 1.36 0 0 0-.679.155c-.163.088-.263.26-.259.445a.88.88 0 0 0 .316.632 11.06 11.06 0 0 0 1.956 1.147 8.6 8.6 0 0 1 2 1.264 1.66 1.66 0 0 1 .556 1.2M53.499 14.244h-4.951c-.055 1.05.024 2.102.237 3.131a.95.95 0 0 0 .986.66 1 1 0 0 0 .749-.253c.192-.252.282-.567.25-.882h2.423a2.5 2.5 0 0 1-.948 2.164c-.863.529-1.869.773-2.878.7a3.89 3.89 0 0 1-3.267-1.438c-.826-1.265-1.216-2.765-1.109-4.272a6.64 6.64 0 0 1 1.153-4.231 4.2 4.2 0 0 1 3.476-1.434 3.58 3.58 0 0 1 2.938 1.15 5.43 5.43 0 0 1 .948 3.476zm-2.806-1.605a7.16 7.16 0 0 0-.193-2 .82.82 0 0 0-.882-.54c-.36-.044-.708.15-.859.48a6.56 6.56 0 0 0-.205 2.063z"/><path d="M63.872 19.653h-3.39v-3.928l-1.485-1.191-.777.6v4.515h-3.39v-3.224a1.01 1.01 0 0 1 .224-.562 3.1 3.1 0 0 1 .6-.591l2.18-1.662-2.774-2.237V8.531h3.406v2.414l1.416 1.141.48-.37V8.525h3.314v1.671c-.007.253-.076.5-.2.72a1.96 1.96 0 0 1-.591.673l-1.9 1.409 2.869 2.329zm10.708-5.836l-.041 1.551-.133 1.476c-.077.803-.474 1.542-1.1 2.051a3.76 3.76 0 0 1-2.442.761 10.2 10.2 0 0 1-1.283-.063 1.92 1.92 0 0 1-.7-.2v3.2h-3.374l-.028-14.07h2.809l.177.506a3.7 3.7 0 0 1 1.264-.518 7.32 7.32 0 0 1 1.513-.142 3.2 3.2 0 0 1 2.145.67 3.01 3.01 0 0 1 .989 1.9c.071.418.118.84.139 1.264l.051 1.624m-3.555.028l-.032-1.532a8.82 8.82 0 0 0-.114-1.1 1.35 1.35 0 0 0-.354-.768 1.06 1.06 0 0 0-.774-.25c-.073 0-.073 0 0-.022s-.212.035-.856.142v7.57c.12.08.257.133.4.155a3.45 3.45 0 0 0 .6.038 1.07 1.07 0 0 0 .727-.253.92.92 0 0 0 .3-.733l.073-1.422.041-1.833m11.792-2.93a7.1 7.1 0 0 0-.815-.2 5.13 5.13 0 0 0-.856-.07 8.83 8.83 0 0 0-.948.051 1.48 1.48 0 0 0-.657.19v8.767H76.16V8.526h2.771l.215.468a3.22 3.22 0 0 1 1.106-.471 5.83 5.83 0 0 1 1.387-.149c.212-.003.424.016.632.057a3.51 3.51 0 0 1 .559.161zm8.947 3.327h-4.957a11.92 11.92 0 0 0 .24 3.131.95.95 0 0 0 .986.66 1.01 1.01 0 0 0 .749-.253 1.26 1.26 0 0 0 .25-.882h2.411a2.54 2.54 0 0 1-.929 2.164c-.864.532-1.874.777-2.885.7-1.249.089-2.462-.437-3.251-1.409a6.88 6.88 0 0 1-1.115-4.272c-.11-1.509.295-3.011 1.15-4.259.869-.999 2.158-1.532 3.479-1.438a3.56 3.56 0 0 1 2.932 1.15 5.39 5.39 0 0 1 .948 3.476zm-2.809-1.605c.032-.672-.033-1.346-.193-2a1 1 0 0 0-1.741-.06 6.4 6.4 0 0 0-.2 2.063z"/><path d="M100.688 16.772a2.6 2.6 0 0 1-1.043 2.212 4.57 4.57 0 0 1-2.844.793 4.88 4.88 0 0 1-2.929-.736 2.57 2.57 0 0 1-.966-2.206h2.73c-.03.311.067.621.269.859.221.2.515.301.812.278.273.021.545-.055.768-.215a.79.79 0 0 0 .256-.632 1.24 1.24 0 0 0-.534-.863c-.357-.316-.948-.752-1.76-1.321a6.22 6.22 0 0 1-1.975-1.9 4.4 4.4 0 0 1-.411-1.987 2.27 2.27 0 0 1 1.046-1.953 4.74 4.74 0 0 1 2.762-.733c.988-.064 1.969.198 2.793.746a2.53 2.53 0 0 1 .948 2.117h-2.724a1.23 1.23 0 0 0-.269-.821.95.95 0 0 0-.749-.316c-.242-.011-.479.066-.67.215-.181.148-.28.374-.265.607a1.47 1.47 0 0 0 .316.885 10.89 10.89 0 0 0 1.931 1.58 9.1 9.1 0 0 1 1.968 1.747 2.74 2.74 0 0 1 .54 1.64m8.647.004c.042.863-.345 1.69-1.033 2.212a4.6 4.6 0 0 1-2.844.793 4.89 4.89 0 0 1-2.932-.736c-.674-.529-1.041-1.358-.979-2.212h2.724a1.13 1.13 0 0 0 .275.859 1.07 1.07 0 0 0 .806.278c.274.022.547-.055.771-.215.175-.163.269-.394.259-.632a1.26 1.26 0 0 0-.54-.863c-.36-.316-.948-.752-1.76-1.321-.79-.477-1.463-1.127-1.968-1.9a4.3 4.3 0 0 1-.417-1.987 2.27 2.27 0 0 1 1.046-1.953 4.74 4.74 0 0 1 2.762-.733 4.5 4.5 0 0 1 2.79.746 2.51 2.51 0 0 1 .967 2.117h-2.727c.011-.298-.085-.589-.272-.821a.92.92 0 0 0-.742-.316 1.03 1.03 0 0 0-.673.215.73.73 0 0 0-.262.607c.004.322.115.633.316.885a10.78 10.78 0 0 0 1.931 1.58 9.19 9.19 0 0 1 1.968 1.747c.352.476.54 1.054.537 1.646m-93.58-5.099h-3.757a2.47 2.47 0 0 0-.231-1.324.95.95 0 0 0-.78-.3c-.548-.047-1.043.326-1.147.866-.199 1.041-.277 2.101-.234 3.16-.063 1.113.026 2.229.265 3.318a1.11 1.11 0 0 0 1.172.7c.295.022.588-.058.831-.227a1.5 1.5 0 0 0 .363-.948h3.16a2.41 2.41 0 0 1-1.194 2.212c-1.109.545-2.341.79-3.574.711a5.4 5.4 0 0 1-4.085-1.44 6.03 6.03 0 0 1-1.393-4.319 5.88 5.88 0 0 1 1.463-4.316 5.89 5.89 0 0 1 4.354-1.45 6.35 6.35 0 0 1 3.551.834c.832.563 1.302 1.526 1.235 2.528m1.1-3.158h4.24v11.242h-4.24z"/><path d="M30.895 9.922H28.26v7a1.07 1.07 0 0 0 .474 1.036 4.23 4.23 0 0 0 1.814.269v1.5h-2.41a5.84 5.84 0 0 1-3.112-.664 2.23 2.23 0 0 1-1.057-2.027V9.922h-1.611V8.497h1.611V5.056h4.291v3.441h2.635zm12.376 9.45a2.79 2.79 0 0 1-1.6 2.572 9.9 9.9 0 0 1-4.648.878 19.18 19.18 0 0 1-2.31-.136c-.721-.078-1.434-.218-2.13-.42l.439-1.3 1.845.278a16.62 16.62 0 0 0 1.662.082 3.41 3.41 0 0 0 2.016-.477 1.68 1.68 0 0 0 .641-1.453 2.19 2.19 0 0 0-.044-.316 1.7 1.7 0 0 1-.035-.281l-.474.4h-2.812l-3.883-3V8.497h4.24v7.861l1.9 1.5.929-.828V8.503h4.243zM16.762 5.037h4.442v2.42h-4.442zm94.605 11.735a1.52 1.52 0 0 1 .724.19 1.35 1.35 0 0 1 .54.54 1.45 1.45 0 0 1 0 1.46 1.37 1.37 0 0 1-.534.543 1.48 1.48 0 0 1-.733.19 1.43 1.43 0 0 1-.727-.19 1.39 1.39 0 0 1-.54-.521 1.47 1.47 0 0 1-.193-.724 1.49 1.49 0 0 1 .2-.736 1.41 1.41 0 0 1 .55-.54 1.5 1.5 0 0 1 .72-.19m0 .246c-.21 0-.417.055-.6.158-.191.105-.349.261-.455.452a1.27 1.27 0 0 0-.164.61 1.24 1.24 0 0 0 .161.607 1.08 1.08 0 0 0 .455.433 1.17 1.17 0 0 0 .6.164 1.19 1.19 0 0 0 .607-.164 1.08 1.08 0 0 0 .452-.449 1.23 1.23 0 0 0 0-1.216 1.12 1.12 0 0 0-.455-.452c-.183-.104-.39-.159-.6-.158m-.632 2.028v-1.581h.543c.135-.007.27.008.4.044a.38.38 0 0 1 .2.148c.046.07.071.151.073.234a.42.42 0 0 1-.12.3c-.085.083-.197.132-.316.139a.48.48 0 0 1 .136.092 1.5 1.5 0 0 1 .234.316l.19.316h-.316l-.136-.25a1.34 1.34 0 0 0-.265-.36.29.29 0 0 0-.205-.057h-.157v.667zm.253-.885h.316a.44.44 0 0 0 .294-.07c.056-.04.088-.105.085-.174a.26.26 0 0 0-.035-.123.29.29 0 0 0-.111-.082c-.082-.024-.168-.033-.253-.028h-.294z"/></g><defs ><path id="B" d="M22.554 54.775v-.022a3.19 3.19 0 0 1 4.772-2.777 3.19 3.19 0 0 1 1.604 2.755v.022c-.002.84-.343 1.644-.945 2.23s-1.415.905-2.255.885c-.834.021-1.641-.295-2.238-.878s-.934-1.381-.934-2.215zm5 0v-.022a1.85 1.85 0 0 0-1.836-1.924 1.79 1.79 0 0 0-1.8 1.9v.022a1.85 1.85 0 0 0 1.823 1.924 1.8 1.8 0 0 0 1.814-1.9z"/></defs></svg>