<svg xmlns="http://www.w3.org/2000/svg" width="118.013" height="59.543" viewBox="0 0 118.013 59.543"><g transform="translate(-0.04 -16)"><g transform="translate(0.54 16.5)"><path d="M8.018,157.832H5.49V156.54h6.449v1.292H9.411v6.635H8.018Z" transform="translate(-3.926 -107.238)" fill="#2f2f2f"/><path d="M24.21,165.464v-.022a3.188,3.188,0,0,1,6.376-.022v.022a3.125,3.125,0,0,1-3.2,3.115,3.093,3.093,0,0,1-3.172-3.093Zm5,0v-.022a1.848,1.848,0,0,0-1.836-1.924,1.792,1.792,0,0,0-1.8,1.9v.022A1.852,1.852,0,0,0,27.4,167.36a1.8,1.8,0,0,0,1.814-1.9Z" transform="translate(-16.731 -111.189)" fill="#2f2f2f"/><path d="M47.11,160.759v-.022a2.855,2.855,0,0,1,2.774-3.1,2.474,2.474,0,0,1,2.038,1.052V155.47h1.371v8.269H51.925v-1a2.4,2.4,0,0,1-2.041,1.109A2.859,2.859,0,0,1,47.11,160.759Zm4.834,0v-.022a1.794,1.794,0,0,0-1.731-1.915,1.766,1.766,0,0,0-1.722,1.915v.022a1.737,1.737,0,1,0,3.457,0Z" transform="translate(-32.396 -106.506)" fill="#2f2f2f"/><path d="M70.34,165.306v-.022a3.188,3.188,0,1,1,6.376-.022v.022a3.125,3.125,0,0,1-3.2,3.115,3.093,3.093,0,0,1-3.172-3.093Zm5,0v-.022a1.848,1.848,0,0,0-1.836-1.924,1.792,1.792,0,0,0-1.8,1.9v.022a1.852,1.852,0,0,0,1.823,1.924,1.8,1.8,0,0,0,1.814-1.9Z" transform="translate(-48.286 -111.031)" fill="#2f2f2f"/><path d="M104.5,155.47h1.371v8.269H104.5Z" transform="translate(-71.653 -106.506)" fill="#2f2f2f"/><path d="M112.74,165.306v-.022a3.188,3.188,0,0,1,6.376-.022v.022a3.125,3.125,0,0,1-3.2,3.115,3.093,3.093,0,0,1-3.172-3.093Zm5,0v-.022a1.848,1.848,0,0,0-1.836-1.924,1.792,1.792,0,0,0-1.8,1.9v.022a1.852,1.852,0,0,0,1.823,1.924,1.8,1.8,0,0,0,1.814-1.9Z" transform="translate(-77.289 -111.031)" fill="#2f2f2f"/><path d="M150.492,167.426a2.4,2.4,0,0,1-2.038,1.122,2.868,2.868,0,0,1-2.774-3.1v-.022a2.855,2.855,0,0,1,2.774-3.1,2.474,2.474,0,0,1,2.038,1.052v-.929h1.371v7.792h-1.371Zm.022-1.981v-.022a1.794,1.794,0,0,0-1.731-1.915,1.766,1.766,0,0,0-1.722,1.915v.022a1.779,1.779,0,0,0,1.722,1.915,1.8,1.8,0,0,0,1.738-1.915Z" transform="translate(-99.822 -111.191)" fill="#2f2f2f"/><path d="M169.73,166.514v-3.792H171.1v3.4c0,.929.464,1.46,1.28,1.46a1.321,1.321,0,0,0,1.349-1.485V162.71H175.1v5.978H173.73v-.929a2.152,2.152,0,0,1-1.867,1.052A2.055,2.055,0,0,1,169.73,166.514Z" transform="translate(-116.273 -111.458)" fill="#2f2f2f"/><path d="M190.4,165.447v-.022a2.97,2.97,0,0,1,2.923-3.115c1.9,0,2.866,1.494,2.866,3.216a2.328,2.328,0,0,1-.022.385h-4.4a1.668,1.668,0,0,0,1.722,1.517,2.174,2.174,0,0,0,1.621-.714l.8.714a3.024,3.024,0,0,1-2.446,1.122,2.983,2.983,0,0,1-3.068-3.1Zm4.423-.442a1.56,1.56,0,0,0-1.517-1.58,1.609,1.609,0,0,0-1.551,1.58Z" transform="translate(-130.413 -111.185)" fill="#2f2f2f"/><path d="M222.49,155.68h1.472v1.3H222.49Zm.057,2.212h1.368v5.978h-1.371Z" transform="translate(-152.363 -106.649)" fill="#2f2f2f"/><path d="M231.95,162.44h1.371v.907a2.142,2.142,0,0,1,1.823-1.03,1.9,1.9,0,0,1,1.779,1.052,2.442,2.442,0,0,1,2.028-1.052,2.011,2.011,0,0,1,2.095,2.288v3.817h-1.371v-3.4c0-.948-.442-1.46-1.213-1.46s-1.264.521-1.264,1.485v3.374h-1.371v-3.412c0-.929-.452-1.45-1.21-1.45s-1.28.566-1.28,1.494v3.365h-1.371Z" transform="translate(-158.834 -111.188)" fill="#2f2f2f"/><path d="M265.28,162.436h1.371v1a2.389,2.389,0,0,1,2.028-1.122,2.87,2.87,0,0,1,2.787,3.1v.022a2.862,2.862,0,0,1-2.787,3.1,2.436,2.436,0,0,1-2.028-1.052v2.739H265.28Zm4.79,3v-.022a1.77,1.77,0,0,0-1.709-1.915,1.8,1.8,0,0,0-1.744,1.915v.022a1.8,1.8,0,0,0,1.744,1.915A1.759,1.759,0,0,0,270.07,165.438Z" transform="translate(-181.633 -111.185)" fill="#2f2f2f"/><path d="M287.54,165.306v-.022a3.188,3.188,0,1,1,6.376-.022v.022a3.125,3.125,0,0,1-3.2,3.115,3.093,3.093,0,0,1-3.172-3.093Zm5,0v-.022a1.848,1.848,0,0,0-1.836-1.924,1.792,1.792,0,0,0-1.8,1.9v.022a1.852,1.852,0,0,0,1.823,1.924,1.8,1.8,0,0,0,1.814-1.9Z" transform="translate(-196.86 -111.031)" fill="#2f2f2f"/><path d="M311.41,162.479h1.371v1.355a2.116,2.116,0,0,1,2.117-1.46v1.45h-.079c-1.2,0-2.038.78-2.038,2.367v2.275H311.41Z" transform="translate(-213.188 -111.227)" fill="#2f2f2f"/><path d="M324.755,163.451v-3.16H324v-1.179h.758V157.47h1.371v1.643h1.608v1.179H326.13v2.932a.651.651,0,0,0,.736.749,1.842,1.842,0,0,0,.85-.2V164.9a2.4,2.4,0,0,1-1.235.316A1.544,1.544,0,0,1,324.755,163.451Z" transform="translate(-221.8 -107.874)" fill="#2f2f2f"/><path d="M342.246,168.489v-.736a2.417,2.417,0,0,1-1.937.859,1.907,1.907,0,0,1-2.13-1.845v-.022c0-1.324,1.03-1.959,2.423-1.959a5.027,5.027,0,0,1,1.652.25v-.114c0-.828-.521-1.28-1.472-1.28a4.165,4.165,0,0,0-1.709.373l-.373-1.1a5.128,5.128,0,0,1,2.275-.5,2.31,2.31,0,0,1,2.629,2.528v3.545Zm.035-2.5a3.909,3.909,0,0,0-1.371-.237c-.859,0-1.371.351-1.371.929v.032c0,.566.509.885,1.156.885.907,0,1.58-.509,1.58-1.264Z" transform="translate(-231.499 -111.259)" fill="#2f2f2f"/><path d="M357.667,147.8h0a1.943,1.943,0,1,1,3.883,0h0a1.943,1.943,0,1,1-3.883,0Zm3.662,0h0a1.719,1.719,0,0,0-3.438,0h0a1.719,1.719,0,1,0,3.438,0Zm-2.528-1.049h.948c.468,0,.815.212.815.67a.632.632,0,0,1-.446.632l.515.727h-.588l-.436-.632h-.316v.632h-.49Zm.916.983c.224,0,.348-.111.348-.278s-.133-.278-.348-.278h-.423v.559Z" transform="translate(-244.828 -99.879)" fill="#2f2f2f"/><path d="M117.537,33.96a5.579,5.579,0,0,0,0-.727V7.751c0-.1-.019-.237-.019-.344A6.9,6.9,0,0,0,110.658.5H7.4V.528A6.9,6.9,0,0,0,.54,7.359h0V34.017A6.91,6.91,0,0,0,7.415,40.9h0l103.252-.022h.035a6.869,6.869,0,0,0,6.85-6.916" transform="translate(-0.54 -0.5)" fill="none" stroke="#2f2f2f" stroke-width="1"/><path d="M152,90.834h-3.444V84.616a.578.578,0,0,0-.3-.528,2,2,0,0,0-.875-.161c-.183,0-.379,0-.594.019a3.634,3.634,0,0,0-.547.1V90.83H142.81V80.23h3.438v2.727a3.719,3.719,0,0,1,1.014-.272,8.638,8.638,0,0,1,1.33-.092,5.175,5.175,0,0,1,2.512.5,1.58,1.58,0,0,1,.9,1.45Z" transform="translate(-97.858 -55.039)" fill="#2f2f2f"/><path d="M186.9,91.807a3.964,3.964,0,0,1-1.15,3.16,5.2,5.2,0,0,1-3.476.992,4.861,4.861,0,0,1-3.425-1.049A4,4,0,0,1,177.71,91.8a4.153,4.153,0,0,1,1.112-3.16,6.546,6.546,0,0,1,7,.016,4.188,4.188,0,0,1,1.077,3.128m-3.6,0a10.416,10.416,0,0,0-.167-2.43c-.107-.325-.392-.474-.837-.474a.79.79,0,0,0-.847.5,10.786,10.786,0,0,0-.161,2.439,9,9,0,0,0,.177,2.376.916.916,0,0,0,1.637-.028,8.621,8.621,0,0,0,.2-2.382" transform="translate(-121.731 -60.1)" fill="#2f2f2f"/><path d="M216.728,83.721h-2.117v5.087a.765.765,0,0,0,.385.755,3.792,3.792,0,0,0,1.463.183v1.087h-1.968a5.379,5.379,0,0,1-2.528-.474,1.58,1.58,0,0,1-.853-1.472V83.721h-1.33v-1h1.333V80.23h3.476v2.487h2.117Z" transform="translate(-143.669 -55.039)" fill="#2f2f2f"/><path d="M244.253,91.978h-5.03a6.637,6.637,0,0,0,.234,2.281.989.989,0,0,0,.986.5,1.182,1.182,0,0,0,.743-.186.771.771,0,0,0,.259-.651H243.9a1.684,1.684,0,0,1-.948,1.58,6.476,6.476,0,0,1-2.907.506,4.693,4.693,0,0,1-3.289-1.049,4,4,0,0,1-1.122-3.112,3.952,3.952,0,0,1,1.169-3.109,5.116,5.116,0,0,1,3.52-1.043,4.391,4.391,0,0,1,2.964.84,3.2,3.2,0,0,1,.948,2.528ZM241.39,90.8a3.637,3.637,0,0,0-.193-1.46.9.9,0,0,0-.882-.389c-.458,0-.739.111-.882.344a3.425,3.425,0,0,0-.2,1.5Z" transform="translate(-161.351 -60.141)" fill="#2f2f2f"/><path d="M274.143,90.834h-2.164a3.7,3.7,0,0,1-1.937-.411,1.324,1.324,0,0,1-.657-1.223V80.23h3.438v8.9a.5.5,0,0,0,.265.483,2.563,2.563,0,0,0,1.055.136Z" transform="translate(-184.439 -55.039)" fill="#2f2f2f"/><path d="M296.729,91.978H291.7a6.5,6.5,0,0,0,.24,2.281.994.994,0,0,0,.986.5,1.264,1.264,0,0,0,.755-.186.793.793,0,0,0,.246-.651h2.455a1.681,1.681,0,0,1-.948,1.58,6.4,6.4,0,0,1-2.913.506,4.693,4.693,0,0,1-3.289-1.049,4.792,4.792,0,0,1,.044-6.221,5.084,5.084,0,0,1,3.51-1.043,4.4,4.4,0,0,1,2.973.84,3.188,3.188,0,0,1,.948,2.528ZM293.867,90.8a3.873,3.873,0,0,0-.186-1.46.921.921,0,0,0-.891-.389c-.461,0-.727.111-.866.344a3.445,3.445,0,0,0-.209,1.5Z" transform="translate(-197.25 -60.141)" fill="#2f2f2f"/><path d="M327.85,93.84a1.757,1.757,0,0,1-1.062,1.618,5.925,5.925,0,0,1-2.888.575,6.489,6.489,0,0,1-2.97-.534,1.719,1.719,0,0,1-1-1.605h2.777a.73.73,0,0,0,.281.632,1.346,1.346,0,0,0,.809.2,1.58,1.58,0,0,0,.787-.155.54.54,0,0,0,.265-.483c0-.193-.183-.4-.544-.632s-.97-.543-1.779-.948a5.967,5.967,0,0,1-2.01-1.374,2.493,2.493,0,0,1-.411-1.45,1.578,1.578,0,0,1,1.049-1.419,6.294,6.294,0,0,1,2.8-.534,6.038,6.038,0,0,1,2.844.54,1.665,1.665,0,0,1,.983,1.526H325a.72.72,0,0,0-.269-.585,1.166,1.166,0,0,0-.749-.227,1.365,1.365,0,0,0-.679.155.493.493,0,0,0-.259.445.882.882,0,0,0,.316.632,11.058,11.058,0,0,0,1.956,1.147,8.607,8.607,0,0,1,2,1.264,1.662,1.662,0,0,1,.556,1.2" transform="translate(-219.014 -60.165)" fill="#2f2f2f"/><path d="M149.859,31.318h-4.951a12.273,12.273,0,0,0,.237,3.131.948.948,0,0,0,.986.66,1,1,0,0,0,.749-.253,1.245,1.245,0,0,0,.25-.882h2.423a2.5,2.5,0,0,1-.948,2.164,4.836,4.836,0,0,1-2.878.7,3.893,3.893,0,0,1-3.267-1.438,6.917,6.917,0,0,1-1.109-4.272,6.644,6.644,0,0,1,1.153-4.231,4.2,4.2,0,0,1,3.476-1.434,3.578,3.578,0,0,1,2.938,1.15,5.431,5.431,0,0,1,.948,3.476Zm-2.806-1.605a7.157,7.157,0,0,0-.193-2,.822.822,0,0,0-.882-.54.834.834,0,0,0-.859.48,6.562,6.562,0,0,0-.205,2.063Z" transform="translate(-96.86 -17.574)" fill="#2f2f2f"/><path d="M181.533,37.028h-3.39V33.1l-1.485-1.191-.777.6v4.515h-3.39V33.8a1.008,1.008,0,0,1,.224-.562,3.1,3.1,0,0,1,.6-.591l2.18-1.662-2.774-2.237V25.906h3.406V28.32l1.416,1.141.48-.37V25.9h3.314v1.671a1.555,1.555,0,0,1-.2.72,1.962,1.962,0,0,1-.591.673l-1.9,1.409,2.869,2.329Z" transform="translate(-118.161 -17.875)" fill="#2f2f2f"/><path d="M215.3,30.846c0,.572-.016,1.09-.041,1.551s-.07.948-.133,1.476a3.014,3.014,0,0,1-1.1,2.051,3.757,3.757,0,0,1-2.442.761,10.2,10.2,0,0,1-1.283-.063,1.918,1.918,0,0,1-.7-.2v3.2h-3.374l-.028-14.07h2.809l.177.506a3.7,3.7,0,0,1,1.264-.518,7.346,7.346,0,0,1,1.513-.142,3.2,3.2,0,0,1,2.145.67,3.011,3.011,0,0,1,.989,1.9,10.787,10.787,0,0,1,.139,1.264c.028.524.051,1.065.051,1.624m-3.555.028c0-.594,0-1.106-.032-1.532a8.686,8.686,0,0,0-.114-1.1,1.352,1.352,0,0,0-.354-.768,1.058,1.058,0,0,0-.774-.25c-.073,0-.073,0,0-.022s-.212.035-.856.142v7.57a.983.983,0,0,0,.4.155,3.451,3.451,0,0,0,.6.038,1.068,1.068,0,0,0,.727-.253.919.919,0,0,0,.3-.733c.019-.215.041-.689.073-1.422s.041-1.343.041-1.833" transform="translate(-141.22 -17.529)" fill="#2f2f2f"/><path d="M246.654,27.962a7.1,7.1,0,0,0-.815-.2,5.128,5.128,0,0,0-.856-.07,8.645,8.645,0,0,0-.948.051,1.482,1.482,0,0,0-.657.19V36.7H240V25.571h2.771l.215.468a3.213,3.213,0,0,1,1.106-.471,5.83,5.83,0,0,1,1.387-.149,3.065,3.065,0,0,1,.632.057,3.51,3.51,0,0,1,.559.161Z" transform="translate(-164.34 -17.545)" fill="#2f2f2f"/><path d="M270.972,31.318h-4.957a11.919,11.919,0,0,0,.24,3.131.948.948,0,0,0,.986.66,1.011,1.011,0,0,0,.749-.253,1.264,1.264,0,0,0,.25-.882h2.411a2.541,2.541,0,0,1-.929,2.164,4.806,4.806,0,0,1-2.885.7,3.835,3.835,0,0,1-3.251-1.409,6.883,6.883,0,0,1-1.115-4.272,6.676,6.676,0,0,1,1.15-4.259A4.216,4.216,0,0,1,267.1,25.46a3.559,3.559,0,0,1,2.932,1.15,5.392,5.392,0,0,1,.948,3.476Zm-2.809-1.605a6.983,6.983,0,0,0-.193-2,1,1,0,0,0-1.741-.06,6.4,6.4,0,0,0-.2,2.063Z" transform="translate(-179.711 -17.574)" fill="#2f2f2f"/><path d="M300.782,33.807a2.6,2.6,0,0,1-1.043,2.212,4.573,4.573,0,0,1-2.844.793,4.885,4.885,0,0,1-2.929-.736A2.567,2.567,0,0,1,293,33.87h2.73a1.156,1.156,0,0,0,.269.859,1.084,1.084,0,0,0,.812.278,1.166,1.166,0,0,0,.768-.215.79.79,0,0,0,.256-.632,1.242,1.242,0,0,0-.534-.863c-.357-.316-.948-.752-1.76-1.321a6.218,6.218,0,0,1-1.975-1.9,4.4,4.4,0,0,1-.411-1.987,2.272,2.272,0,0,1,1.046-1.953,4.739,4.739,0,0,1,2.762-.733,4.517,4.517,0,0,1,2.793.746,2.528,2.528,0,0,1,.948,2.117H297.98a1.226,1.226,0,0,0-.269-.821.948.948,0,0,0-.749-.316,1.014,1.014,0,0,0-.67.215.724.724,0,0,0-.265.607,1.469,1.469,0,0,0,.316.885,10.905,10.905,0,0,0,1.931,1.58,9.065,9.065,0,0,1,1.968,1.747,2.746,2.746,0,0,1,.54,1.64" transform="translate(-200.594 -17.535)" fill="#2f2f2f"/><path d="M328.138,33.793a2.616,2.616,0,0,1-1.033,2.212,4.6,4.6,0,0,1-2.844.793,4.889,4.889,0,0,1-2.932-.736,2.576,2.576,0,0,1-.979-2.212h2.724a1.131,1.131,0,0,0,.275.859,1.068,1.068,0,0,0,.806.278,1.166,1.166,0,0,0,.771-.215.815.815,0,0,0,.259-.632,1.264,1.264,0,0,0-.54-.863c-.36-.316-.948-.752-1.76-1.321a6.147,6.147,0,0,1-1.968-1.9,4.3,4.3,0,0,1-.417-1.987,2.272,2.272,0,0,1,1.046-1.953,4.739,4.739,0,0,1,2.762-.733,4.5,4.5,0,0,1,2.79.746,2.509,2.509,0,0,1,.967,2.117h-2.727a1.235,1.235,0,0,0-.272-.821.923.923,0,0,0-.742-.316,1.024,1.024,0,0,0-.673.215.73.73,0,0,0-.262.607,1.447,1.447,0,0,0,.316.885,10.779,10.779,0,0,0,1.931,1.58,9.192,9.192,0,0,1,1.968,1.747,2.743,2.743,0,0,1,.537,1.646" transform="translate(-219.303 -17.521)" fill="#2f2f2f"/><path d="M25.874,28.572H22.117a2.468,2.468,0,0,0-.231-1.324.948.948,0,0,0-.78-.3,1.074,1.074,0,0,0-1.147.866,13.846,13.846,0,0,0-.234,3.16,12.246,12.246,0,0,0,.265,3.318,1.111,1.111,0,0,0,1.172.7,1.286,1.286,0,0,0,.831-.227,1.5,1.5,0,0,0,.363-.948h3.16a2.408,2.408,0,0,1-1.194,2.212,7.073,7.073,0,0,1-3.574.711A5.4,5.4,0,0,1,16.663,35.3a6.026,6.026,0,0,1-1.393-4.319,5.878,5.878,0,0,1,1.463-4.316,5.889,5.889,0,0,1,4.354-1.45,6.35,6.35,0,0,1,3.551.834,2.825,2.825,0,0,1,1.235,2.528" transform="translate(-10.616 -17.403)" fill="#2f2f2f"/><rect width="4.24" height="11.242" transform="translate(16.357 8.016)" fill="#2f2f2f"/><path d="M78.257,19.786H75.622v7a1.071,1.071,0,0,0,.474,1.036,4.231,4.231,0,0,0,1.814.269v1.5H75.5a5.845,5.845,0,0,1-3.112-.664A2.228,2.228,0,0,1,71.331,26.9V19.786H69.72V18.361h1.611V14.92h4.291v3.441h2.635Z" transform="translate(-47.862 -10.364)" fill="#2f2f2f"/><path d="M111.387,36.685a2.791,2.791,0,0,1-1.6,2.572,9.9,9.9,0,0,1-4.648.878,19.273,19.273,0,0,1-2.31-.136,12.414,12.414,0,0,1-2.13-.42l.439-1.3c.667.13,1.286.221,1.845.278a16.619,16.619,0,0,0,1.662.082,3.406,3.406,0,0,0,2.016-.477,1.678,1.678,0,0,0,.641-1.453,2.19,2.19,0,0,0-.044-.316,1.7,1.7,0,0,1-.035-.281l-.474.4h-2.812l-3.883-3V25.81h4.24v7.861l1.9,1.5.929-.828V25.816h4.243Z" transform="translate(-68.616 -17.813)" fill="#2f2f2f"/><rect width="4.442" height="2.42" transform="translate(16.262 4.537)" fill="#2f2f2f"/><path d="M348.263,52a1.516,1.516,0,0,1,.724.19,1.349,1.349,0,0,1,.54.54,1.45,1.45,0,0,1,0,1.46,1.368,1.368,0,0,1-.534.543,1.479,1.479,0,0,1-.733.19,1.431,1.431,0,0,1-.727-.19,1.39,1.39,0,0,1-.54-.521,1.472,1.472,0,0,1-.193-.724,1.491,1.491,0,0,1,.2-.736,1.412,1.412,0,0,1,.55-.54,1.5,1.5,0,0,1,.72-.19m0,.246a1.226,1.226,0,0,0-.6.158,1.156,1.156,0,0,0-.455.452,1.264,1.264,0,0,0-.164.61,1.239,1.239,0,0,0,.161.607,1.081,1.081,0,0,0,.455.433,1.172,1.172,0,0,0,.6.164,1.191,1.191,0,0,0,.607-.164,1.081,1.081,0,0,0,.452-.449,1.229,1.229,0,0,0,0-1.216,1.122,1.122,0,0,0-.455-.452,1.207,1.207,0,0,0-.6-.158m-.632,2.028V52.7h.543a1.264,1.264,0,0,1,.4.044.379.379,0,0,1,.2.148.443.443,0,0,1,.073.234.42.42,0,0,1-.12.3.493.493,0,0,1-.316.139.481.481,0,0,1,.136.092,1.5,1.5,0,0,1,.234.316l.19.316h-.316l-.136-.25a1.347,1.347,0,0,0-.265-.36.288.288,0,0,0-.205-.057H347.9v.667Zm.253-.885h.316a.439.439,0,0,0,.294-.07.205.205,0,0,0,.085-.174.259.259,0,0,0-.035-.123.284.284,0,0,0-.111-.082.755.755,0,0,0-.253-.028h-.294Z" transform="translate(-237.396 -35.728)" fill="#2f2f2f"/></g></g></svg>