<svg xmlns="http://www.w3.org/2000/svg" xmlns:xlink="http://www.w3.org/1999/xlink" width="86.33" height="81.48" viewBox="0 0 113.145 87.764" xmlns:v="https://vecta.io/nano"><g fill="#555"><path d="M56.568 0a48.04 48.04 0 0 0-12.765 1.747h25.529A47.27 47.27 0 0 0 56.568 0zM36.01 4.837l-3.762 2.016h12.228a17.13 17.13 0 0 1 3.358-2.016zm45.012 2.016L77.26 4.837H65.436a17.13 17.13 0 0 1 3.359 2.016zm7.525 5.911a43.98 43.98 0 0 0-3.63-3.224h-13.3c.952.957 1.766 2.042 2.418 3.224zM28.351 9.54a43.98 43.98 0 0 0-3.628 3.224h14.646a14.48 14.48 0 0 1 2.419-3.224zm-5.507 5.375a13.27 13.27 0 0 0-2.285 4.568h16.258a22.7 22.7 0 0 1 1.342-4.568zm70.004 4.702a18.18 18.18 0 0 0-2.285-4.568H75.111a17.88 17.88 0 0 1 1.344 4.568zm-56.435 2.016H20.021c0 .537-.135 1.075-.135 1.478-.008 1.132.127 2.26.4 3.359h16.261c-.162-1.113-.252-2.235-.269-3.359.106-.485.151-.982.135-1.478zm40.176 4.837h16.258c.273-1.099.408-2.227.4-3.359a5.04 5.04 0 0 0-.135-1.478H76.858v1.478a28.29 28.29 0 0 1-.269 3.359zm-55.628 1.613a18.19 18.19 0 0 0 3.493 5.105H39.1a24.23 24.23 0 0 1-2.149-5.105zm67.855 5.105a20.36 20.36 0 0 0 3.494-5.105H76.186c-.436 1.807-1.162 3.531-2.15 5.105zm-22.439 7.66h11.955l3.493-2.016c1.939-1.247 3.781-2.64 5.509-4.166h-14.1a20.27 20.27 0 0 1-6.857 6.182zm-26.335-6.181H25.799c1.728 1.527 3.57 2.921 5.509 4.168l3.493 2.016h11.955a21.15 21.15 0 0 1-6.714-6.184zm8.326 6.852H36.413a47.36 47.36 0 0 0 20.155 4.568 46.89 46.89 0 0 0 20.154-4.568H64.764a21.35 21.35 0 0 1-8.2 1.747 17.34 17.34 0 0 1-8.196-1.747zm-31.57 34.13H12.63v-3.628h13.034v3.628h-4.168v11.689H16.93V75.649z"/><use xlink:href="#B"/><path d="M37.891 72.156h4.168V87.34h-4.168z"/><use xlink:href="#B" x="20.289"/><path d="M65.301 87.338h-4.837l-3.628-10.883h4.434l1.747 6.581h0l1.748-6.581h4.3zm5.375-10.883h4.168v10.883h-4.168zm4.168-1.473h-4.168v-2.961h4.168zm8.865 4.563a.91.91 0 0 0-.537-.806c-.257-.227-.603-.326-.941-.269-.537 0-1.206.135-1.206.806 0 .269.269.4.537.537.672.269 2.285.4 3.628.806a3.07 3.07 0 0 1 2.553 3.091c0 2.961-2.961 3.9-5.509 3.9s-5.377-1.078-5.377-3.9h4.031c-.018.391.191.757.537.941a2.53 2.53 0 0 0 1.075.269c.537 0 1.344-.269 1.344-.806 0-.672-.4-.806-2.285-1.206-3.224-.537-4.434-1.612-4.434-3.359 0-2.687 2.961-3.493 5.105-3.493 2.285 0 5.24.672 5.24 3.493h-3.759zm13.035 3.897c.015.468-.164.921-.495 1.252s-.784.51-1.252.495c-.806 0-1.344-.537-1.344-.941 0-.672.537-.941 1.344-1.206a7.57 7.57 0 0 0 1.612-.537v.941zm3.9-3.091c0-2.15 0-4.3-5.105-4.3-2.553 0-5.509.537-5.643 3.628h3.892c0-.4.269-1.075 1.612-1.075.672 0 1.344.269 1.344 1.075 0 .672-.537.806-1.075.941-2.15.4-6.181.269-6.181 3.762 0 2.285 1.747 3.359 3.9 3.359 1.312.136 2.611-.363 3.493-1.344h0a3.34 3.34 0 0 0 .135 1.075h4.3a4.92 4.92 0 0 1-.537-2.418v-4.702zM0 53.747h11.824v3.9H4.7v1.881h6.18v3.628H4.7v5.912H0zm24.992 15.318h-4.03v-1.479h0a4.17 4.17 0 0 1-3.628 1.747 3.52 3.52 0 0 1-3.763-3.761v-7.659h4.3v5.778c0 1.344.135 2.15 1.344 2.15.672 0 1.747-.4 1.747-2.15v-5.913h4.3v11.287z"/><use xlink:href="#C"/><path d="M48.774 63.555c0 1.344-.4 2.822-1.881 2.822s-1.879-1.478-1.879-2.822.4-2.687 1.881-2.687c1.611-.134 1.879 1.344 1.879 2.687zm4.166-9.808h-4.3v5.374h0c-.721-.976-1.881-1.528-3.093-1.474-3.762 0-4.7 3.224-4.7 5.778 0 2.822 1.478 5.912 4.7 5.912 1.269.167 2.522-.407 3.224-1.478h0v1.206h4.027V53.747zm9.003 11.421a1.62 1.62 0 0 1-1.747 1.747 1.23 1.23 0 0 1-1.344-1.075c0-.806.537-.941 1.478-1.206a5.69 5.69 0 0 0 1.612-.537zm4.168-3.09c0-2.15 0-4.3-5.24-4.3-2.687 0-5.643.537-5.778 3.628h3.9c0-.4.269-1.075 1.612-1.075.672 0 1.344.269 1.344 1.075 0 .672-.537.941-1.206.941-2.15.4-6.315.269-6.315 3.762 0 2.285 1.747 3.359 3.9 3.359a4.56 4.56 0 0 0 3.628-1.344h0a2.96 2.96 0 0 0 .135 1.075h4.289a3.8 3.8 0 0 1-.544-2.421v-4.7zm9.404.134a1.22 1.22 0 0 0-.537-1.075c-.293-.268-.678-.412-1.075-.4-1.612 0-1.881 1.478-1.881 2.822s.269 2.687 1.881 2.687c.885-.012 1.6-.727 1.612-1.612h4.031c-.4 3.091-2.822 4.7-5.778 4.7a5.72 5.72 0 0 1-6.047-5.777c-.025-1.599.609-3.138 1.752-4.256a5.83 5.83 0 0 1 4.295-1.657c2.961 0 5.374 1.478 5.643 4.568zm6.045-4.297h4.3v11.15h-4.3zm4.3-1.207h-4.3v-2.961h4.3zm9.808 6.847c0 1.206-.269 2.822-1.881 2.822s-1.879-1.612-1.879-2.822.269-2.687 1.881-2.687c1.611-.134 1.879 1.479 1.879 2.687zm2.554-9.808h-4.435l-2.147 3.224h2.961zm1.612 9.808c0-3.091-1.881-5.778-6.046-5.778s-6.048 2.689-6.048 5.778c-.098 1.62.512 3.203 1.672 4.337s2.756 1.71 4.374 1.576c4.166-.135 6.046-2.822 6.046-5.913z"/><use xlink:href="#C" x="74.304"/></g><defs ><path id="B" d="M27.948 80.619c.026-.538.27-1.042.676-1.397s.938-.529 1.474-.484c.503-.012.988.182 1.343.538s.55.841.538 1.343zm7.927 2.15c0-4.3-1.881-6.719-6.181-6.719-1.549-.057-3.053.533-4.149 1.63s-1.686 2.6-1.628 4.149c0 3.628 2.687 5.643 6.046 5.643a5.71 5.71 0 0 0 5.643-3.493h-3.9a2 2 0 0 1-1.747.806 2.12 2.12 0 0 1-2.15-2.15h8.058z"/><path id="C" d="M27.411 57.912h4.031v1.478h0a4.17 4.17 0 0 1 3.627-1.747 3.52 3.52 0 0 1 3.762 3.762v7.659h-4.3v-5.777c0-1.344-.135-2.15-1.344-2.15-.672 0-1.747.4-1.747 2.15V69.2h-4.298V57.912z"/></defs></svg>