<svg xmlns="http://www.w3.org/2000/svg" width="86.33" height="81.48" viewBox="0 0 113.145 87.764"><g transform="translate(19.886 0)"><g transform="translate(23.917)"><path d="M45.365,0A48.038,48.038,0,0,0,32.6,1.747H58.129A47.27,47.27,0,0,0,45.365,0Z" transform="translate(-32.6 0)" fill="#555"/></g><g transform="translate(12.362 4.837)"><path d="M27.762,3.6C26.418,4.272,25.206,4.944,24,5.616H36.228A17.131,17.131,0,0,1,39.586,3.6Z" transform="translate(-24 -3.6)" fill="#555"/></g><g transform="translate(45.55 4.837)"><path d="M64.286,5.616C63.08,4.944,61.868,4.272,60.524,3.6H48.7a17.132,17.132,0,0,1,3.359,2.016Z" transform="translate(-48.7 -3.6)" fill="#555"/></g><g transform="translate(51.731 9.54)"><path d="M70.23,10.324A43.98,43.98,0,0,0,66.6,7.1H53.3a14.465,14.465,0,0,1,2.418,3.224Z" transform="translate(-53.3 -7.1)" fill="#555"/></g><g transform="translate(4.837 9.54)"><path d="M22.028,7.1A43.981,43.981,0,0,0,18.4,10.324H33.046A14.466,14.466,0,0,1,35.465,7.1Z" transform="translate(-18.4 -7.1)" fill="#555"/></g><g transform="translate(0.673 14.915)"><path d="M17.585,11.1A13.271,13.271,0,0,0,15.3,15.668H31.558A22.7,22.7,0,0,1,32.9,11.1Z" transform="translate(-15.3 -11.1)" fill="#555"/></g><g transform="translate(55.225 15.049)"><path d="M73.637,15.768A18.179,18.179,0,0,0,71.352,11.2H55.9a17.878,17.878,0,0,1,1.344,4.568Z" transform="translate(-55.9 -11.2)" fill="#555"/></g><g transform="translate(0 21.633)"><path d="M31.327,16.1H14.935c0,.537-.135,1.075-.135,1.478a13.536,13.536,0,0,0,.4,3.359H31.461a26.176,26.176,0,0,1-.269-3.359A6.026,6.026,0,0,0,31.327,16.1Z" transform="translate(-14.8 -16.1)" fill="#555"/></g><g transform="translate(56.703 21.632)"><path d="M57,20.937H73.258a13.536,13.536,0,0,0,.4-3.359,5.038,5.038,0,0,0-.135-1.478H57.269v1.478A28.289,28.289,0,0,1,57,20.937Z" transform="translate(-57 -16.099)" fill="#555"/></g><g transform="translate(1.075 28.083)"><path d="M15.6,20.9a18.192,18.192,0,0,0,3.493,5.105H33.739A24.228,24.228,0,0,1,31.59,20.9Z" transform="translate(-15.6 -20.9)" fill="#555"/></g><g transform="translate(54.15 28.083)"><path d="M69.88,26.005A20.337,20.337,0,0,0,73.374,20.9H57.25a17.174,17.174,0,0,1-2.15,5.105Z" transform="translate(-55.1 -20.9)" fill="#555"/></g><g transform="translate(46.491 34.664)"><path d="M49.4,31.982H61.355c1.206-.672,2.418-1.344,3.493-2.016A45.426,45.426,0,0,0,70.357,25.8h-14.1A20.276,20.276,0,0,1,49.4,31.982Z" transform="translate(-49.4 -25.798)" fill="#555"/></g><g transform="translate(5.913 34.667)"><path d="M33.443,25.8H19.2a45.425,45.425,0,0,0,5.509,4.168c1.075.672,2.285,1.344,3.493,2.016H40.157A21.151,21.151,0,0,1,33.443,25.8Z" transform="translate(-19.2 -25.8)" fill="#555"/></g><g transform="translate(16.527 41.519)"><path d="M39.055,30.9H27.1a47.358,47.358,0,0,0,20.155,4.568A46.89,46.89,0,0,0,67.409,30.9H55.451a21.348,21.348,0,0,1-8.2,1.747A17.343,17.343,0,0,1,39.055,30.9Z" transform="translate(-27.1 -30.9)" fill="#555"/></g></g><g transform="translate(0 53.747)"><g transform="translate(12.63 18.274)"><path d="M13.568,57.228H9.4V53.6H22.434v3.628H18.266V68.917H13.7V57.228Z" transform="translate(-9.4 -53.6)" fill="#555"/><g transform="translate(11.283 4.026)"><path d="M21.831,61.168a1.985,1.985,0,0,1,2.15-1.881,1.837,1.837,0,0,1,1.881,1.881Zm7.927,2.15c0-4.3-1.881-6.719-6.181-6.719A5.575,5.575,0,0,0,17.8,62.378c0,3.628,2.687,5.643,6.046,5.643a5.712,5.712,0,0,0,5.643-3.493h-3.9a2,2,0,0,1-1.747.806,2.122,2.122,0,0,1-2.15-2.15h8.058Z" transform="translate(-17.796 -56.596)" fill="#555"/></g><g transform="translate(25.261 0.135)"><path d="M28.2,53.7h4.168V68.884H28.2Z" transform="translate(-28.2 -53.7)" fill="#555"/></g><g transform="translate(31.572 4.026)"><path d="M36.931,61.168a1.985,1.985,0,0,1,2.15-1.881,1.837,1.837,0,0,1,1.881,1.881Zm7.927,2.15c0-4.3-1.881-6.719-6.181-6.719A5.575,5.575,0,0,0,32.9,62.378c0,3.628,2.687,5.643,6.046,5.643a5.712,5.712,0,0,0,5.643-3.493h-3.9a2,2,0,0,1-1.747.806,2.122,2.122,0,0,1-2.15-2.15h8.058Z" transform="translate(-32.896 -56.596)" fill="#555"/></g><g transform="translate(44.206 4.434)"><path d="M50.765,67.783H45.928L42.3,56.9h4.434l1.747,6.581h0L50.229,56.9h4.3Z" transform="translate(-42.3 -56.9)" fill="#555"/></g><g transform="translate(58.046)"><path d="M52.6,58.034h4.168V68.917H52.6Zm4.168-1.473H52.6V53.6h4.168Z" transform="translate(-52.6 -53.6)" fill="#555"/></g><g transform="translate(64.23 4.034)"><path d="M64.052,60.093a.907.907,0,0,0-.537-.806,1.134,1.134,0,0,0-.941-.269c-.537,0-1.206.135-1.206.806,0,.269.269.4.537.537.672.269,2.285.4,3.628.806a3.071,3.071,0,0,1,2.553,3.091c0,2.961-2.961,3.9-5.509,3.9S57.2,67.08,57.2,64.258h4.031a1.014,1.014,0,0,0,.537.941,2.531,2.531,0,0,0,1.075.269c.537,0,1.344-.269,1.344-.806,0-.672-.4-.806-2.285-1.206-3.224-.537-4.434-1.612-4.434-3.359,0-2.687,2.961-3.493,5.105-3.493,2.285,0,5.24.672,5.24,3.493H64.054Z" transform="translate(-57.203 -56.603)" fill="#555"/></g><g transform="translate(76.857 4.031)"><path d="M73.856,63.99a1.693,1.693,0,0,1-1.747,1.747c-.806,0-1.344-.537-1.344-.941,0-.672.537-.941,1.344-1.206a7.568,7.568,0,0,0,1.612-.537v.941Zm3.9-3.091c0-2.15,0-4.3-5.105-4.3-2.553,0-5.509.537-5.643,3.628H70.9c0-.4.269-1.075,1.612-1.075.672,0,1.344.269,1.344,1.075,0,.672-.537.806-1.075.941-2.15.4-6.181.269-6.181,3.762,0,2.285,1.747,3.359,3.9,3.359a4.126,4.126,0,0,0,3.493-1.344h0a3.338,3.338,0,0,0,.135,1.075h4.3a4.92,4.92,0,0,1-.537-2.418V60.9Z" transform="translate(-66.599 -56.6)" fill="#555"/></g></g><path d="M0,40H11.824v3.9H4.7v1.881h6.18v3.628H4.7v5.912H0Z" transform="translate(0 -40)" fill="#555"/><g transform="translate(13.563 4.031)"><path d="M21.521,54.287H17.491V52.808h0a4.168,4.168,0,0,1-3.628,1.747A3.522,3.522,0,0,1,10.1,50.794V43.135h4.3v5.778c0,1.344.135,2.15,1.344,2.15.672,0,1.747-.4,1.747-2.15V43h4.3V54.287Z" transform="translate(-10.092 -43)" fill="#555"/></g><g transform="translate(27.142 3.888)"><path d="M20.469,43.169H24.5v1.478h0A4.168,4.168,0,0,1,28.127,42.9a3.522,3.522,0,0,1,3.762,3.762v7.659h-4.3V48.544c0-1.344-.135-2.15-1.344-2.15-.672,0-1.747.4-1.747,2.15v5.913H20.2V43.169Z" transform="translate(-20.2 -42.892)" fill="#555"/></g><g transform="translate(40.847)"><path d="M38.327,49.808c0,1.344-.4,2.822-1.881,2.822s-1.879-1.478-1.879-2.822.4-2.687,1.881-2.687C38.059,46.987,38.327,48.465,38.327,49.808ZM42.493,40h-4.3v5.374h0A3.643,3.643,0,0,0,35.1,43.9c-3.762,0-4.7,3.224-4.7,5.778,0,2.822,1.478,5.912,4.7,5.912a3.335,3.335,0,0,0,3.224-1.478h0v1.206h4.027V40Z" transform="translate(-30.4 -40)" fill="#555"/></g><g transform="translate(54.424 4.031)"><path d="M48.024,50.39a1.62,1.62,0,0,1-1.747,1.747,1.229,1.229,0,0,1-1.344-1.075c0-.806.537-.941,1.478-1.206a5.689,5.689,0,0,0,1.612-.537ZM52.192,47.3c0-2.15,0-4.3-5.24-4.3-2.687,0-5.643.537-5.778,3.628h3.9c0-.4.269-1.075,1.612-1.075.672,0,1.344.269,1.344,1.075,0,.672-.537.941-1.206.941-2.15.4-6.315.269-6.315,3.762,0,2.285,1.747,3.359,3.9,3.359a4.561,4.561,0,0,0,3.628-1.344h0a2.961,2.961,0,0,0,.135,1.075h4.289A3.8,3.8,0,0,1,51.917,52V47.3Z" transform="translate(-40.505 -43)" fill="#555"/></g><g transform="translate(67.72 3.893)"><path d="M58.194,47.468a1.222,1.222,0,0,0-.537-1.075,1.526,1.526,0,0,0-1.075-.4c-1.612,0-1.881,1.478-1.881,2.822s.269,2.687,1.881,2.687a1.634,1.634,0,0,0,1.612-1.612h4.031c-.4,3.091-2.822,4.7-5.778,4.7A5.72,5.72,0,0,1,50.4,48.813,5.827,5.827,0,0,1,56.447,42.9c2.961,0,5.374,1.478,5.643,4.568Z" transform="translate(-50.399 -42.896)" fill="#555"/></g><g transform="translate(81.56)"><path d="M60.7,44.168H65v11.15H60.7ZM65,42.961H60.7V40H65Z" transform="translate(-60.7 -40)" fill="#555"/></g><g transform="translate(87.731)"><path d="M73.228,49.808c0,1.206-.269,2.822-1.881,2.822s-1.879-1.612-1.879-2.822.269-2.687,1.881-2.687C72.96,46.987,73.228,48.6,73.228,49.808ZM75.782,40H71.347L69.2,43.224h2.961Zm1.612,9.808c0-3.091-1.881-5.778-6.046-5.778S65.3,46.719,65.3,49.808a5.594,5.594,0,0,0,6.046,5.913c4.166-.135,6.046-2.822,6.046-5.913Z" transform="translate(-65.291 -40)" fill="#555"/></g><g transform="translate(101.446 3.888)"><path d="M75.769,43.169H79.8v1.478h0A4.168,4.168,0,0,1,83.427,42.9a3.522,3.522,0,0,1,3.762,3.762v7.659h-4.3V48.544c0-1.344-.135-2.15-1.344-2.15-.672,0-1.747.4-1.747,2.15v5.913H75.5V43.169Z" transform="translate(-75.5 -42.892)" fill="#555"/></g></g></svg>