<svg xmlns="http://www.w3.org/2000/svg" width="143.905" height="25.177" viewBox="0 0 143.905 25.177"><g transform="translate(-0.01 -0.01)"><path d="M446.416,17.29v1.321q.048,3.568.1,7.137c.024,1.519.051,3.039.094,4.547.019.655.075,1.308.118,1.99H441.54V12.863c.158,0,.3-.021.449-.021h7.875a.5.5,0,0,1,.567.4c1.185,3.237,2.408,6.463,3.606,9.691q.859,2.3,1.72,4.6a2.34,2.34,0,0,0,.211.356l.15-.035-.308-14.98h5.157v19.42c-.11,0-.225.032-.34.032h-8.148c-.209,0-.377.019-.482-.267-1.14-3.14-2.311-6.273-3.461-9.411-.6-1.645-1.193-3.3-1.792-4.946a1.884,1.884,0,0,0-.329-.4Z" transform="translate(-323.928 -10.026)" fill="#555"/><path d="M127.139,28V25.06c0-1.041,0-2.081-.019-3.122-.024-1.7-.064-3.4-.083-5.1-.013-1.305,0-2.613,0-3.959h5.048V32.312c-.11,0-.238.027-.366.027h-8.1a.487.487,0,0,1-.551-.34q-1.969-5.4-3.951-10.8-.653-1.779-1.316-3.552a1.2,1.2,0,0,0-.227-.286l-.123.059c.029.682.075,1.367.088,2.049.016.875,0,1.749.016,2.624q.036,2.436.088,4.871c.027,1.367.054,2.736.094,4.1,0,.4.062.8.1,1.23H112.67V12.881c.147,0,.292-.021.436-.021h7.872a.528.528,0,0,1,.591.433c1.1,3,2.226,5.989,3.346,8.98q1.016,2.712,2.036,5.425A2.826,2.826,0,0,0,127.139,28Z" transform="translate(-83.029 -10.044)" fill="#555"/><path d="M229.11,12.878h5.2v7.313c.535,0,1.016.013,1.506,0,.094,0,.2-.155.268-.267q1.554-2.266,3.079-4.531c.519-.76,1.033-1.522,1.568-2.271a.613.613,0,0,1,.409-.251c1.99-.016,3.98,0,6.043,0-.492.7-.944,1.367-1.412,2.02q-1.6,2.226-3.21,4.44c-.669.926-1.337,1.854-2.014,2.774a.455.455,0,0,0-.021.637q3.44,4.547,6.867,9.132c.1.139.193.286.316.468-.139,0-.238.013-.34.013h-5.7a.623.623,0,0,1-.586-.308q-2.493-3.552-5.045-7.067a.693.693,0,0,0-.457-.235c-.4-.035-.8,0-1.241,0v7.562H229.11Z" transform="translate(-168.322 -10.046)" fill="#555"/><path d="M307.641,32.389H302.46V12.969h5.157v7.295h1.442c.1,0,.219-.126.286-.225q1.808-2.616,3.6-5.243c.369-.535.722-1.086,1.1-1.6a.535.535,0,0,1,.353-.227c2-.013,4.012,0,6.1,0-.393.567-.736,1.07-1.094,1.578-1.107,1.541-2.223,3.076-3.333,4.617-.754,1.049-1.509,2.094-2.242,3.156a.471.471,0,0,0,0,.433q3.507,4.665,7.033,9.37a1.809,1.809,0,0,1,.136.294h-5.944a.725.725,0,0,1-.7-.345q-2.464-3.542-4.973-7.051a.551.551,0,0,0-.364-.211c-.447-.027-.9,0-1.38,0Z" transform="translate(-222.051 -10.116)" fill="#555"/><path d="M375.57,32.415V13h14.078v4.21h-8.806v3.609h8.252v3.566H380.84v3.863h9v4.168Z" transform="translate(-275.605 -10.147)" fill="#555"/><path d="M197.6,12.91h5.112V32.346H197.6Z" transform="translate(-145.241 -10.081)" fill="#555"/><path d="M14.732,2.37h8.64a4.088,4.088,0,0,1,3.25,1.707A4.49,4.49,0,0,1,27.521,7c.016,5.307,0,10.617,0,15.924a4.477,4.477,0,0,1-3.443,4.486,5.323,5.323,0,0,1-1.15.136H6.461a4.339,4.339,0,0,1-4.392-3.226,4.012,4.012,0,0,1-.158-1.1c0-5.518-.024-11.04,0-16.558A4.192,4.192,0,0,1,4.949,2.539a3.084,3.084,0,0,1,.915-.163h8.867Zm-.019,24.722c2.819,0,5.641-.021,8.461,0a4.007,4.007,0,0,0,3.9-3.916q-.029-8.236,0-16.47A4.012,4.012,0,0,0,23.12,2.753H6.287a3.954,3.954,0,0,0-3.932,3.9c.035,5.521,0,11.04.013,16.561a4.031,4.031,0,0,0,.062.8A3.951,3.951,0,0,0,6.343,27.1C9.133,27.068,11.923,27.092,14.713,27.092Z" transform="translate(-1.89 -2.36)" fill="#555"/><path d="M530.281,15.292c-.439.171-.58-.091-.7-.383a8.709,8.709,0,0,0-.615-1.337V15.31l-.46.037v-2.5c.663-.19.778-.139,1.027.473.158.391.3.786.484,1.257L530.7,12.8h.848v2.52h-.5V13.649h-.086Z" transform="translate(-387.634 -9.966)" fill="#555"/><path d="M522.012,13.409l-.821.035v2.049h-.479V13.452l-.7-.045L520,13h1.985Z" transform="translate(-381.4 -10.147)" fill="#555"/><path d="M36.968,30.933H33.956V30.4c0-3.21.027-6.42-.016-9.63A3.659,3.659,0,0,1,35,18.176c.286-.324.591-.637.872-.966a.891.891,0,0,0,.267-.861,4.738,4.738,0,0,1-.08-1.115V11.026a1.573,1.573,0,0,1,1.562-1.549h.77a1.428,1.428,0,0,1,1.485,1.5V15.45a4.107,4.107,0,0,1-.08.618c-.088.556.377.8.647,1.164.423.556.942,1.046,1.316,1.629a2.75,2.75,0,0,1,.455,1.364c.037,3.477.021,6.936.019,10.406a2.675,2.675,0,0,1-.019.374H38.859v-.5c0-2.972-.037-5.944.021-8.913a2.436,2.436,0,0,0-.992-1.966,2.608,2.608,0,0,0-.942,2.215c.059,2.849.021,5.7.021,8.56Zm4.874-.383v-.57c0-3.181.013-6.358-.016-9.539a2.367,2.367,0,0,0-.38-1.244c-.535-.8-1.177-1.519-1.757-2.25-.385.647-.73,1.265-1.118,1.854-.356.535-.385.535.072.971a1.872,1.872,0,0,1,.623,1.461c-.032,2.942-.013,5.885-.013,8.827v.5ZM36.9,10.186a1.214,1.214,0,0,0-.463,1.035q0,2.074,0,4.152a6.371,6.371,0,0,0,.091.749h.147a4.293,4.293,0,0,0,.179-.829C36.9,13.578,36.832,11.86,36.9,10.186Z" transform="translate(-25.359 -7.565)" fill="#555"/><path d="M13.7,30.868H10.711v-.535c0-3.047-.021-6.094.016-9.138A2.328,2.328,0,0,0,10,19.633a7.314,7.314,0,0,1-1.685-2.806,8.8,8.8,0,0,1-.294-1.889c-.045-1.265-.024-2.533,0-3.8a1.564,1.564,0,0,1,.84-1.6,1.482,1.482,0,0,1,2.164,1.313c-.037,1.337.019,2.675-.019,4.012a2.992,2.992,0,0,0,.851,2.044c.495.6,1.046,1.222,1.5,1.872a2.14,2.14,0,0,1,.358,1.123c.027,3.558.016,7.118.016,10.676C13.717,30.684,13.707,30.748,13.7,30.868Z" transform="translate(-6.351 -7.501)" fill="#555"/><path d="M72.27,30.986h-3.14a2.168,2.168,0,0,1-.219-.027V20.016a2.829,2.829,0,0,1,.8-1.741c.559-.7,1.161-1.359,1.691-2.076a1.76,1.76,0,0,0,.294-.952c.032-1.386,0-2.774.013-4.16a1.688,1.688,0,1,1,3.376.024v4.114a6.192,6.192,0,0,1-1.725,4.149,6.769,6.769,0,0,0-.762.875,2.054,2.054,0,0,0-.318.984c-.024,3.074-.013,6.152-.013,9.226Zm-.452-.463v-.535c0-2.942,0-5.912.016-8.867a1.98,1.98,0,0,1,.345-1.019,15.581,15.581,0,0,1,1.091-1.3,5.617,5.617,0,0,0,1.42-3.437c.056-1.4.027-2.8,0-4.208A1.334,1.334,0,0,0,72.9,9.929a1.421,1.421,0,0,0-.8,1.428v4.162a1.217,1.217,0,0,1-.171.674c-.535.73-1.1,1.436-1.677,2.14a3.546,3.546,0,0,0-.963,2.378c.04,3.09.016,6.182.016,9.274v.551h2.525Z" transform="translate(-50.975 -7.535)" fill="#555"/><path d="M24.054,25.741a2.424,2.424,0,0,1-.332-4.834A2.391,2.391,0,0,1,26.507,23.3,2.419,2.419,0,0,1,24.054,25.741Z" transform="translate(-16.276 -15.933)" fill="#555"/><path d="M62.716,23.034a2.547,2.547,0,0,1-2.581,2.514,2.585,2.585,0,1,1,2.581-2.514ZM57.9,22.967a2.21,2.21,0,0,0,4.416-.051,2.237,2.237,0,0,0-2.207-2.094,2.14,2.14,0,0,0-2.2,2.145Z" transform="translate(-42.588 -15.55)" fill="#555"/></g></svg>