<svg xmlns="http://www.w3.org/2000/svg" width="143.905" height="25.177" fill="#555" xmlns:v="https://vecta.io/nano"><path d="M122.478 7.254v1.321q.048 3.568.1 7.137l.094 4.547.118 1.99h-5.188V2.827l.449-.021h7.875a.5.5 0 0 1 .567.4l3.606 9.691q.859 2.3 1.72 4.6a2.34 2.34 0 0 0 .211.356l.15-.035-.308-14.98h5.157v19.42c-.11 0-.225.032-.34.032h-8.148c-.209 0-.377.019-.482-.267l-3.461-9.411-1.792-4.946c-.091-.148-.201-.282-.329-.4zM44.1 17.946v-2.94l-.019-3.122-.083-5.1V2.825h5.048v19.433c-.11 0-.238.027-.366.027h-8.1c-.243.043-.48-.103-.551-.34q-1.969-5.4-3.951-10.8-.653-1.779-1.316-3.552a1.2 1.2 0 0 0-.227-.286l-.123.059.088 2.049.016 2.624q.036 2.436.088 4.871l.094 4.1c0 .4.062.8.1 1.23h-5.167V2.827l.436-.021h7.872a.53.53 0 0 1 .591.433l3.346 8.98q1.016 2.712 2.036 5.425c.056.105.119.205.188.302zM60.778 2.822h5.2v7.313h1.506c.094 0 .2-.155.268-.267q1.554-2.266 3.079-4.531l1.568-2.271c.097-.136.244-.226.409-.251h6.043l-1.412 2.02q-1.6 2.226-3.21 4.44l-2.014 2.774c-.179.171-.189.454-.021.637q3.44 4.547 6.867 9.132l.316.468-.34.013h-5.7c-.238.018-.466-.101-.586-.308q-2.493-3.552-5.045-7.067c-.117-.134-.28-.218-.457-.235-.4-.035-.8 0-1.241 0v7.562h-5.23zM85.58 22.263h-5.181V2.843h5.157v7.295h1.442c.1 0 .219-.126.286-.225q1.808-2.616 3.6-5.243l1.1-1.6a.53.53 0 0 1 .353-.227h6.1l-1.094 1.578-3.333 4.617-2.242 3.156a.47.47 0 0 0 0 .433q3.507 4.665 7.033 9.37a1.81 1.81 0 0 1 .136.294h-5.944c-.281.031-.554-.104-.7-.345q-2.464-3.542-4.973-7.051a.55.55 0 0 0-.364-.211c-.447-.027-.9 0-1.38 0zm14.375-.005V2.843h14.078v4.21h-8.806v3.609h8.252v3.566h-8.254v3.863h9v4.168zM52.349 2.819h5.112v19.436h-5.112zM12.832 0h8.64a4.09 4.09 0 0 1 3.25 1.707 4.49 4.49 0 0 1 .899 2.923v15.924a4.48 4.48 0 0 1-3.443 4.486 5.3 5.3 0 0 1-1.15.136H4.561A4.34 4.34 0 0 1 .169 21.95a4.01 4.01 0 0 1-.158-1.1V4.292A4.19 4.19 0 0 1 3.049.169a3.1 3.1 0 0 1 .915-.163h8.867zm-.019 24.722h8.461a4.01 4.01 0 0 0 3.9-3.916q-.029-8.236 0-16.47C25.142 2.166 23.39.414 21.22.383H4.387C2.233.395.484 2.129.455 4.283l.013 16.561a4.03 4.03 0 0 0 .062.8 3.95 3.95 0 0 0 3.913 3.086l8.37-.008zM142.637 5.316c-.439.171-.58-.091-.7-.383a8.71 8.71 0 0 0-.615-1.337v1.738l-.46.037v-2.5c.663-.19.778-.139 1.027.473l.484 1.257.683-1.777h.848v2.52h-.5V3.673h-.086z"/><path d="M140.602 3.252l-.821.035v2.049h-.479V3.295l-.7-.045-.012-.407h1.985zM11.599 23.358H8.587v-.533l-.016-9.63a3.66 3.66 0 0 1 1.06-2.594l.872-.966a.89.89 0 0 0 .267-.861 4.74 4.74 0 0 1-.08-1.115V3.451c.013-.855.707-1.543 1.562-1.549h.77a1.43 1.43 0 0 1 1.485 1.5v4.473c-.011.208-.038.414-.08.618-.088.556.377.8.647 1.164.423.556.942 1.046 1.316 1.629a2.75 2.75 0 0 1 .455 1.364l.019 10.406a2.75 2.75 0 0 1-.019.374H13.49v-.5l.021-8.913c.001-.776-.367-1.506-.992-1.966a2.61 2.61 0 0 0-.942 2.215l.021 8.56zm4.874-.383v-.57l-.016-9.539a2.37 2.37 0 0 0-.38-1.244c-.535-.8-1.177-1.519-1.757-2.25l-1.118 1.854c-.356.535-.385.535.072.971a1.87 1.87 0 0 1 .623 1.461l-.013 8.827v.5zM11.531 2.611c-.316.247-.489.635-.463 1.035q0 2.074 0 4.152a6.37 6.37 0 0 0 .091.749h.147a4.27 4.27 0 0 0 .179-.829l.046-5.107zM7.339 23.357H4.35v-.535l.016-9.138a2.33 2.33 0 0 0-.727-1.562 7.31 7.31 0 0 1-1.685-2.806 8.8 8.8 0 0 1-.294-1.889v-3.8c-.088-.657.249-1.299.84-1.6A1.48 1.48 0 0 1 4.664 3.34l-.019 4.012a2.99 2.99 0 0 0 .851 2.044l1.5 1.872a2.14 2.14 0 0 1 .358 1.123l.016 10.676-.031.29zm13.946.084h-3.14a2.17 2.17 0 0 1-.219-.027V12.471a2.83 2.83 0 0 1 .8-1.741l1.691-2.076a1.76 1.76 0 0 0 .294-.952l.013-4.16a1.69 1.69 0 0 1 1.7-1.676 1.69 1.69 0 0 1 1.676 1.7V7.68a6.19 6.19 0 0 1-1.725 4.149 6.77 6.77 0 0 0-.762.875c-.188.296-.298.634-.318.984l-.013 9.226zm-.452-.463v-.535l.016-8.867a1.98 1.98 0 0 1 .345-1.019 15.58 15.58 0 0 1 1.091-1.3c.85-.951 1.351-2.163 1.42-3.437V3.612a1.33 1.33 0 0 0-.579-1.074c-.355-.243-.806-.301-1.211-.154a1.42 1.42 0 0 0-.8 1.428v4.162c.01.237-.05.471-.171.674l-1.677 2.14c-.607.645-.95 1.493-.963 2.378l.016 9.274v.551h2.525zM7.768 9.798c-1.307.047-2.415-.952-2.505-2.256s.872-2.445 2.173-2.578a2.39 2.39 0 0 1 2.785 2.393 2.42 2.42 0 0 1-2.453 2.441zm12.35-2.324a2.55 2.55 0 0 1-.77 1.792c-.484.472-1.136.731-1.811.722-1.052.001-2-.636-2.397-1.61s-.163-2.092.59-2.827 1.877-.938 2.841-.516 1.575 1.387 1.546 2.439zm-4.816-.067a2.21 2.21 0 0 0 4.416-.051c-.075-1.168-1.037-2.081-2.207-2.094a2.14 2.14 0 0 0-2.2 2.145z"/></svg>