<svg xmlns="http://www.w3.org/2000/svg" viewBox="0 0 1962.3 2020" width="131" height="134" xmlns:v="https://vecta.io/nano"><path d="M966.9,1765.8c-189-88-353.3-232-462.4-405.7S338,984.6,323.9,724.6c-4.6-84.1-4.6-189.2,0-321.4l1-27.8,27.5-4.6c209.1-34.9,420.7-52.6,628.9-52.6s419.9,17.7,629,52.6l27.5,4.6.9,27.8c4.6,132.2,4.6,237.3,0,321.4-14.1,260-71.5,461.9-180.6,635.5s-273.3,317.7-462.4,405.7l-14.4,6.7Z" fill="#565555"/><path d="M689 1197.8c-4.1.8-6.3-1.4-6.8-4.1-1.6-7.4-5.8-32.7-7.1-40.1-.7-4.1.5-6.3 4.2-7.5l72.8-24.7c6.3-2.2 8.2-4.7 11.8-10.4 10.2-16.3 35.3-60.6 47.1-83.5a10.5 10.5 0 0 0-.3-10.3l-5.4-9a18 18 0 0 0-9.7-7.2l-73.2-18.2a19.4 19.4 0 0 0-10.4.4l-2.8.9c23.8 8.1 44 15.4 69.7 25.2a9.7 9.7 0 0 1 5.3 5.6l2.3 7.8a12.3 12.3 0 0 1-.8 9.4c-10.9 21.4-29.8 49.7-44.9 67.9a21.5 21.5 0 0 1-8.5 6.1c-14.6 5.4-41.1 14.2-52.7 17.2a5.4 5.4 0 0 1-5.3-1c-8.4-5.9-25.8-22.2-25.8-22.2s-1.4 17.7-1.5 25.6a5.8 5.8 0 0 0 .5 2.6c2.9 6.9 8.2 20.2 10.3 26.9a49.1 49.1 0 0 1 1.5 5.1l11 45.9c1.2 5.2 4.1 7 8.7 6s24.7-6.6 32.5-9.2a8.4 8.4 0 0 0 3.1-1.9l13.4-12.3s-28.4 7-39 9zm42.7-105.1c9.7-11.7 22.4-30.3 33.1-47.9l-79 65.1c13-3.9 30.5-9.9 41.1-13.8a11.1 11.1 0 0 0 4.8-3.4zm1.9-262.3l-14.1 1.2a2.2 2.2 0 0 0-2.1 2.2l-1.4 16.7a1.4 1.4 0 0 0 1.6 1.4l14.3-3.2a7 7 0 0 0 4.4-3.5 16.1 16.1 0 0 0 .5-12.9 3.4 3.4 0 0 0-3.2-1.9zm-137.5 209.7l21.4 25.1 6.3-43.4c-12.4 1.9-23.8 9.8-27.7 18.3zm698.7-4.6c-8.7-15.5-52.2-74.4-106.7-131.2a21.3 21.3 0 0 0-7-4.8l-8.8-3.9 22.9 107.1a24.5 24.5 0 0 0 6.7 12.7c24.4 24.1 40.4 42.9 53.9 62.7a59.6 59.6 0 0 1 9.9 29.1c3.7 55 1.9 130.6-4.2 172.7-1.3 8.5-3.4 11.5-8.9 16-52.7 42.6-139.9 117.6-177.3 154.6a50.3 50.3 0 0 0-7.7 9.3 179.9 179.9 0 0 0-10.2 18.4s-8.9-27.2-10.9-42c-.9-7-1-8.9 0-15.9 4.5-31.8 26.8-105.2 30.4-116.1a10.5 10.5 0 0 0 .5-3v-6.9c-8.1 16.9-49.4 109.9-58.2 141.9-1.8 6.7-1.5 9.4.2 14.4 5.4 15.4 21 53.6 28.2 69.2 0 0 17-31.8 26.8-47.9a64.4 64.4 0 0 1 10-12.1c29.4-27.2 135.2-115.5 184.6-152.6 6.6-5 8.6-8.5 10.4-15.4 20-76.3 28.4-164.1 18.6-246.9a24.4 24.4 0 0 0-3.2-9.4zm-216.6-223.2a17.4 17.4 0 0 0 2.1-11.6c-1.6-9.6-4.1-20.9-6.1-29.4a5.4 5.4 0 0 0-3-3.6l-14.9-7.1a9.7 9.7 0 0 0-6.3-.9c-35.9 6.3-73.8 13.8-102.4 20.3a8.8 8.8 0 0 0-5.5 4.1l-8.9 15.4a2 2 0 0 0 1.3 3l28.1 4.9c3.2.5 4.3.4 6.9-.7 18.2-7.5 47.8-19 69.8-27a8.3 8.3 0 0 1 5.4-.1l10.1 3.2a5.9 5.9 0 0 1 3.5 2.9c2.8 4.8 5.7 10.2 7.4 13.7s.5 5.9-1.6 8.9c-7.4 10.8-20.2 27.9-29 38.6a9.1 9.1 0 0 0-1.8 8.4c5.2 17.8 16.4 54.5 22.4 72a11.2 11.2 0 0 0 3.5 5.3l8.4 7.7-16.6-79.7a10.6 10.6 0 0 1 1.3-8c7.1-10.3 19.8-29.6 25.9-40.3zm321.3 51c-1-4.7-2.5-6.7-6.4-9.6-40.3-29.9-112.6-72.4-155.7-90.5a23.8 23.8 0 0 0-17.4-.4c-20.6 7.5-53.4 21.3-87.5 37.4l22.2 1.9a17.8 17.8 0 0 0 8.6-.6c10.5-2.8 29.1-7.5 43.7-10.8a25 25 0 0 1 20.5 4.4c20.1 14.9 52.3 40.9 72.9 58.2a46.2 46.2 0 0 0 12.1 7.2c31.4 12.6 45.2 18.9 52.3 22.5a19.1 19.1 0 0 1 9.8 12.5c8.2 31.5 13.7 79.9 16.5 114.8a44 44 0 0 1-2.5 19c-8.8 25-30.8 66.7-43.1 86.5a19.7 19.7 0 0 1-4.4 5c-4.4 3.8-12.1 10-17.7 14.3a4.7 4.7 0 0 0-1.8 3.6c-.1 13.5-2.7 39.6-2.7 39.6 30.2-37.8 58.9-86.9 84.4-139 2.1-4.3 2.9-6.7 3.3-10.7 6-55.9 2.4-122.3-7.1-165.3zm-400.9 676.9c-7.1-15.9-44-103.4-54-136.8-3.5-11.9-4-15.1-2.6-28.4 8.4-82.3 37.9-213.1 42.6-231.1 1-3.8.8-4.8.1-8.6l-5.1-30.3c-13.4 30.9-61 158.8-78.5 234-3.3 14.2-2.8 18 .2 25.7 25.3 65.5 89.7 183.8 101.5 201.7l-2.7-20.6a18.6 18.6 0 0 0-1.5-5.6zm-57.3 5.1l-18.3-11.9a59.7 59.7 0 0 1-8.2-6.2c-29.2-26.5-131.9-152.7-162.7-207.6-5.2-9.2-6.7-13.5-6.2-22.8s2.7-31 4.7-42.9c1.3-7.5 3-12.4 9.4-18.2 17.4-15.8 45.6-44.2 60.4-59.1 6.4-6.6 9.6-10.8 13.1-17.2 13.5-25.3 54.8-115 68.6-151.9 2.5-6.5 2.6-8.3 1.7-15.1-2.7-19.3-18.1-69.2-18.1-69.2l-1.3 16.7a12.9 12.9 0 0 0 .1 3.4c1.3 7.2 6 35.8 5.8 50.5 0 5.1-.3 6.9-3 12.3-20.8 40.8-101.7 149.6-152.8 208.4-5.8 6.7-7.4 11.1-9 18.6-2.6 12.4-5.6 40.8-7.6 63.3-1 12.1-.2 16.3 7.5 29.1 30.9 51.3 135.9 174.1 170.1 202.6a51.7 51.7 0 0 0 7.3 4.9c12 6.5 45 22.8 45 22.8l-5.1-9a6.6 6.6 0 0 0-1.4-1.5zM788.8 813.6l65.2-20.4a15.3 15.3 0 0 0 9-7.3l34.8-59.9a2.1 2.1 0 0 0-1.8-3.2l-29.8.4a34.3 34.3 0 0 0-8.3 1.4c-25.8 8.6-62.7 25-83.5 35.9a22.4 22.4 0 0 0-6.2 5.3l-31.4 38.7a11 11 0 0 1-3.8 2.9l-20.4 8.6a4.1 4.1 0 0 0-2.2 2.1l-1 2.1 57.5-2.5a96.2 96.2 0 0 0 21.9-4.1zm119.5-141.2c82.1-6.2 176.5-4.4 199.4-3.9a38.2 38.2 0 0 1 10.1 1.7l16.8 5.6c-41.3 2.2-140.9 11.1-181.2 18l14.2 2.2a10.1 10.1 0 0 0 3 .2c29.9-1.9 88.2-3.7 113.9-4.1 6.2-.1 9.5.5 15.9 2.9 14.9 5.7 44.8 19.3 57.2 25.6a39.1 39.1 0 0 0 17.6 4.6c13.4.6 33.9 2 49 3.6a32.3 32.3 0 0 1 11.8 3.5 945.6 945.6 0 0 1 93.9 55.1 12.4 12.4 0 0 0 4.9 2l12.6 2.5s-40.4-41.3-56.3-55.4a44.1 44.1 0 0 0-7.5-5.3c-60.1-34.4-114.2-62.4-144.7-75.3a51.1 51.1 0 0 0-15.3-3.7c-93.1-7-190.5-5.3-262.5 1a15.7 15.7 0 0 0-11.7 6.5c-2.8 4.1-7.4 11.5-11.6 18.3a39.8 39.8 0 0 1-7.5 8.9c-13 11.3-34.8 29.7-48.6 40.1l-2.7 2-28.4 18.8a7.9 7.9 0 0 0-2.5 2.3l-6.9 8.8c57.3-32.2 130.3-72.6 155.3-83.6a37.1 37.1 0 0 1 11.8-2.9zM640.8 854.2a12 12 0 0 1-2.6 2.4c-51 36.4-79.6 59.6-90.9 69.1-4.6 4.5-9 8.9-13 13.1s-4.5 5.1-4.7 8.1-.4 5.8-.4 7.7a5 5 0 0 0 .9 2.9c.7 1 4.8 5.6 5.7 6.6a1.2 1.2 0 0 0 1.6.2c7.6-5.3 18.2-13.2 27.8-20.5a12.4 12.4 0 0 0 2.7-2.9c1.6-2.8 3.8-6.8 5-9.4s1.3-2.2 3.2-3.4l7.8-4.9s-4.4 17.8-7.5 24a23.4 23.4 0 0 1-2.9 4.5c-7.5 7.8-21.1 23-27.9 31.4-2.3 2.8-1.5 6.2.3 9a333 333 0 0 0 27.2 33.6c2.4 2.6 3.6 3.7 5.8 4.9a32.1 32.1 0 0 0 5.6 2.7s6.5-31.3 9.3-41a9.1 9.1 0 0 1 7.1-7C634.3 977 706.5 965 706.5 965c-7.6-9.1-32.9-35.2-40.6-41.8a12.5 12.5 0 0 0-7.5-3.3c-9.3-1.1-39.9-3.3-39.9-3.3s2.6-3 4.6-5a12.4 12.4 0 0 1 5.3-3.4c37.5-13 87.5-31.9 116.8-44.1 6.3-2.6 9.4-4.5 14.4-9.8 2.2-2.2 6.7-7.2 9.2-10.3a3.1 3.1 0 0 0 .9-1.8c.2-.9.4-2.6.4-2.6l-17.4 12.8a33.5 33.5 0 0 1-12.8 6c-10.3 2.7-29.6 7.3-41.1 9.9-3.2.7-4.7.7-7.5-.4a73.2 73.2 0 0 1-7.5-3 7.2 7.2 0 0 0-5.7-.7c-10.2 2.3-38.1 9.2-38.1 9.2l13.8-12.2a13.2 13.2 0 0 1 3.8-2l31.7-12.3c2.3-.9 3.2-2 3.4-4.3.7-7.7 2.9-21.7 4.2-29a6.5 6.5 0 0 1 2.7-4.6l32.7-25 1-1 5.8-7.2-57.1 34.3a143 143 0 0 0-15.1 10.6 10.2 10.2 0 0 0-1.8 1.8c-3.8 4.7-19 24.4-24.3 31.7zm-23-284.6v-87.9q56.1-4.9 112.2-8.4v14.4q-48.9 3-97.8 7.1v21.9l86.6-6.5v14.4l-86.6 6.5V554q48.9-4.1 97.8-7.1v14.4q-56.1 3.3-112.2 8.3zm-152.7 16.5v-88q44.4-5.6 88.8-10.2a34.9 34.9 0 0 1 12.8.5 19.1 19.1 0 0 1 9 4.9 18.1 18.1 0 0 1 4.5 8.3 41.1 41.1 0 0 1 1 8.9v10.3a42.8 42.8 0 0 1-1 9 22.8 22.8 0 0 1-4.6 9.2 24.4 24.4 0 0 1-9 6.4c-3.4 1.6-7.6 2.5-12.7 3.1q-37.2 3.9-74.4 8.4v27.4l-14.4 1.8zm14.4-43.6q39.5-4.8 79-8.9a9.3 9.3 0 0 0 8.2-9v-15.4a7.3 7.3 0 0 0-8.2-7.4q-39.6 4.1-79 8.9zm781.6 20.6a74.3 74.3 0 0 1-13.8-2 26.1 26.1 0 0 1-10.3-5 18.5 18.5 0 0 1-6.1-9.2 34.6 34.6 0 0 1-1.3-10.2v-39.2a33.9 33.9 0 0 1 1.3-10.1 15.7 15.7 0 0 1 6.1-8.4 22.8 22.8 0 0 1 10.3-3.7 76.1 76.1 0 0 1 13.8-.2l58.4 4.4a70.5 70.5 0 0 1 13.7 2.3 28.2 28.2 0 0 1 10.4 5.2 20 20 0 0 1 6 9.4 35.1 35.1 0 0 1 1.3 10.2v39.2a33.9 33.9 0 0 1-1.3 10.1 15.5 15.5 0 0 1-6 8.2 23.2 23.2 0 0 1-10.4 3.5 70 70 0 0 1-13.7-.1l-58.4-4.4zm-8.8-74.1a7.6 7.6 0 0 0-8.2 7.7v42.7a8.9 8.9 0 0 0 8.2 8.7l7.3.5h1.6l58.1 4.4h1.2l7.7.6a7.3 7.3 0 0 0 8.2-7.5v-42.5a9.1 9.1 0 0 0-8.2-8.9q-37.9-3.1-75.9-5.7zm179.2 89.3v-73.6l-51.5-5.3V485q58.6 5.7 117.2 13.1v14.4l-51.4-6.2v73.6zm-351.7-23.5v-88l112.4 4.3v14.3l-98-3.8v21.8q43.3 1.2 86.7 3.3v14.4q-43.4-2.1-86.7-3.3v23l98 3.8V559l-112.4-4.2zm-124.4-1.1a75.8 75.8 0 0 1-13.8-1 24 24 0 0 1-10.4-4.3 16.8 16.8 0 0 1-6-8.7 33.7 33.7 0 0 1-1.4-10.1v-38.9c0-8.4 2.2-14.7 6.6-18.8s11.3-6.1 22.2-6.2l83.2.3v14.4q-44.5-.6-89.2-.2a8.3 8.3 0 0 0-8.2 8.3v42.7a8.1 8.1 0 0 0 8.2 8.1h8.9q36.2-.3 72.3.2v-23l-46.8-.2.1-14.4q30.6 0 61.1.4V554l-86.8-.3zm-156.3 3.8a72.6 72.6 0 0 1-13.8-.5 22.9 22.9 0 0 1-10.3-3.8 15.9 15.9 0 0 1-6.1-8.5 33.9 33.9 0 0 1-1.3-10.1v-63.3l14.4-.8v65.2a7.8 7.8 0 0 0 8.2 7.8l73.4-2.7a8.6 8.6 0 0 0 8.3-8.5v-65.1l14.4-.4v63.4a34.9 34.9 0 0 1-1.4 10.2 17.7 17.7 0 0 1-6 8.9 25.5 25.5 0 0 1-10.4 4.6 70.8 70.8 0 0 1-13.8 1.5l-55.6 2.1zm810.8-154.9a3665.6 3665.6 0 0 0-1257.2 0c-3.2 85.7-6.8 218.3-.7 330.8 13.6 250.9 68.9 445.6 174 612.8s266.9 310 455.3 395.1c188.4-85.1 350.6-228.4 455.4-395.1s160.3-361.9 174-612.8c6.1-112.5 2.4-245.1-.8-330.8zm-23.4 329.5c-13.4 246.6-67.5 437.6-170.3 601.2s-256.9 298.7-434.9 381.5c-177.9-82.8-332.1-217.9-434.9-381.5S389.5 978.7 376.1 732.1c-4.4-80.5-4.4-181.8 0-309a3644.5 3644.5 0 0 1 1210.4 0c4.4 127.2 4.4 228.5 0 309z" fill="#fff"/></svg>